<?xml version="1.0" encoding="utf-8" standalone="no"?>
<!DOCTYPE svg PUBLIC "-//W3C//DTD SVG 1.1//EN"
  "http://www.w3.org/Graphics/SVG/1.1/DTD/svg11.dtd">
<!-- Created with matplotlib (https://matplotlib.org/) -->
<svg height="720pt" version="1.1" viewBox="0 0 720 720" width="720pt" xmlns="http://www.w3.org/2000/svg" xmlns:xlink="http://www.w3.org/1999/xlink">
 <defs>
  <style type="text/css">
*{stroke-linecap:butt;stroke-linejoin:round;}
  </style>
 </defs>
 <g id="figure_1">
  <g id="patch_1">
   <path d="M 0 720 
L 720 720 
L 720 0 
L 0 0 
z
" style="fill:#ffffff;"/>
  </g>
  <g id="axes_1">
   <g id="patch_2">
    <path d="M 90 640.8 
L 648 640.8 
L 648 86.4 
L 90 86.4 
z
" style="fill:#ffffff;"/>
   </g>
   <g id="matplotlib.axis_1">
    <g id="xtick_1"/>
    <g id="xtick_2"/>
    <g id="xtick_3"/>
    <g id="xtick_4"/>
    <g id="xtick_5"/>
   </g>
   <g id="matplotlib.axis_2">
    <g id="ytick_1"/>
    <g id="ytick_2"/>
    <g id="ytick_3"/>
    <g id="ytick_4"/>
    <g id="ytick_5"/>
    <g id="ytick_6"/>
    <g id="ytick_7"/>
   </g>
   <g id="PathCollection_1">
    <defs>
     <path d="M 0 2.5 
C 0.663008 2.5 1.29895 2.236584 1.767767 1.767767 
C 2.236584 1.29895 2.5 0.663008 2.5 0 
C 2.5 -0.663008 2.236584 -1.29895 1.767767 -1.767767 
C 1.29895 -2.236584 0.663008 -2.5 0 -2.5 
C -0.663008 -2.5 -1.29895 -2.236584 -1.767767 -1.767767 
C -2.236584 -1.29895 -2.5 -0.663008 -2.5 0 
C -2.5 0.663008 -2.236584 1.29895 -1.767767 1.767767 
C -1.29895 2.236584 -0.663008 2.5 0 2.5 
z
" id="C0_0_da64c6a613"/>
    </defs>
    <g clip-path="url(#pc4912d7871)">
     <use style="fill:#fde725;" x="293.219769" xlink:href="#C0_0_da64c6a613" y="315.477799"/>
    </g>
    <g clip-path="url(#pc4912d7871)">
     <use style="fill:#fde725;" x="256.889877" xlink:href="#C0_0_da64c6a613" y="302.150523"/>
    </g>
    <g clip-path="url(#pc4912d7871)">
     <use style="fill:#fde725;" x="553.947224" xlink:href="#C0_0_da64c6a613" y="137.291295"/>
    </g>
    <g clip-path="url(#pc4912d7871)">
     <use style="fill:#fde725;" x="503.914279" xlink:href="#C0_0_da64c6a613" y="300.227471"/>
    </g>
    <g clip-path="url(#pc4912d7871)">
     <use style="fill:#fde725;" x="436.901732" xlink:href="#C0_0_da64c6a613" y="345.063075"/>
    </g>
    <g clip-path="url(#pc4912d7871)">
     <use style="fill:#fde725;" x="417.442908" xlink:href="#C0_0_da64c6a613" y="210.600151"/>
    </g>
    <g clip-path="url(#pc4912d7871)">
     <use style="fill:#fde725;" x="380.790475" xlink:href="#C0_0_da64c6a613" y="278.596895"/>
    </g>
    <g clip-path="url(#pc4912d7871)">
     <use style="fill:#fde725;" x="431.432242" xlink:href="#C0_0_da64c6a613" y="285.288206"/>
    </g>
    <g clip-path="url(#pc4912d7871)">
     <use style="fill:#fde725;" x="244.606428" xlink:href="#C0_0_da64c6a613" y="255.889253"/>
    </g>
    <g clip-path="url(#pc4912d7871)">
     <use style="fill:#fde725;" x="318.907107" xlink:href="#C0_0_da64c6a613" y="417.4429"/>
    </g>
    <g clip-path="url(#pc4912d7871)">
     <use style="fill:#fde725;" x="452.885885" xlink:href="#C0_0_da64c6a613" y="127.270822"/>
    </g>
    <g clip-path="url(#pc4912d7871)">
     <use style="fill:#fde725;" x="269.509284" xlink:href="#C0_0_da64c6a613" y="363.234828"/>
    </g>
    <g clip-path="url(#pc4912d7871)">
     <use style="fill:#fde725;" x="346.541039" xlink:href="#C0_0_da64c6a613" y="355.423801"/>
    </g>
    <g clip-path="url(#pc4912d7871)">
     <use style="fill:#fde725;" x="196.170966" xlink:href="#C0_0_da64c6a613" y="402.008403"/>
    </g>
    <g clip-path="url(#pc4912d7871)">
     <use style="fill:#fde725;" x="224.296106" xlink:href="#C0_0_da64c6a613" y="372.680935"/>
    </g>
    <g clip-path="url(#pc4912d7871)">
     <use style="fill:#fde725;" x="318.20005" xlink:href="#C0_0_da64c6a613" y="417.298652"/>
    </g>
    <g clip-path="url(#pc4912d7871)">
     <use style="fill:#fde725;" x="300.928139" xlink:href="#C0_0_da64c6a613" y="223.622037"/>
    </g>
    <g clip-path="url(#pc4912d7871)">
     <use style="fill:#fde725;" x="292.966194" xlink:href="#C0_0_da64c6a613" y="214.727739"/>
    </g>
    <g clip-path="url(#pc4912d7871)">
     <use style="fill:#fde725;" x="402.941327" xlink:href="#C0_0_da64c6a613" y="230.664359"/>
    </g>
    <g clip-path="url(#pc4912d7871)">
     <use style="fill:#fde725;" x="422.208817" xlink:href="#C0_0_da64c6a613" y="405.39273"/>
    </g>
    <g clip-path="url(#pc4912d7871)">
     <use style="fill:#fde725;" x="115.363636" xlink:href="#C0_0_da64c6a613" y="365.247981"/>
    </g>
    <g clip-path="url(#pc4912d7871)">
     <use style="fill:#fde725;" x="406.892026" xlink:href="#C0_0_da64c6a613" y="283.354253"/>
    </g>
    <g clip-path="url(#pc4912d7871)">
     <use style="fill:#fde725;" x="412.657398" xlink:href="#C0_0_da64c6a613" y="243.795646"/>
    </g>
    <g clip-path="url(#pc4912d7871)">
     <use style="fill:#fde725;" x="478.041653" xlink:href="#C0_0_da64c6a613" y="324.20355"/>
    </g>
    <g clip-path="url(#pc4912d7871)">
     <use style="fill:#fde725;" x="430.085219" xlink:href="#C0_0_da64c6a613" y="394.319909"/>
    </g>
    <g clip-path="url(#pc4912d7871)">
     <use style="fill:#fde725;" x="360.154926" xlink:href="#C0_0_da64c6a613" y="431.878836"/>
    </g>
    <g clip-path="url(#pc4912d7871)">
     <use style="fill:#fde725;" x="495.984405" xlink:href="#C0_0_da64c6a613" y="259.397463"/>
    </g>
    <g clip-path="url(#pc4912d7871)">
     <use style="fill:#fde725;" x="612.042779" xlink:href="#C0_0_da64c6a613" y="266.847989"/>
    </g>
    <g clip-path="url(#pc4912d7871)">
     <use style="fill:#fde725;" x="234.620738" xlink:href="#C0_0_da64c6a613" y="255.551292"/>
    </g>
    <g clip-path="url(#pc4912d7871)">
     <use style="fill:#fde725;" x="517.261107" xlink:href="#C0_0_da64c6a613" y="381.425712"/>
    </g>
    <g clip-path="url(#pc4912d7871)">
     <use style="fill:#fde725;" x="260.946348" xlink:href="#C0_0_da64c6a613" y="292.653828"/>
    </g>
    <g clip-path="url(#pc4912d7871)">
     <use style="fill:#fde725;" x="138.073678" xlink:href="#C0_0_da64c6a613" y="294.062306"/>
    </g>
    <g clip-path="url(#pc4912d7871)">
     <use style="fill:#fde725;" x="299.36969" xlink:href="#C0_0_da64c6a613" y="221.5875"/>
    </g>
    <g clip-path="url(#pc4912d7871)">
     <use style="fill:#fde725;" x="583.644953" xlink:href="#C0_0_da64c6a613" y="317.886901"/>
    </g>
    <g clip-path="url(#pc4912d7871)">
     <use style="fill:#fde725;" x="507.290575" xlink:href="#C0_0_da64c6a613" y="250.806695"/>
    </g>
    <g clip-path="url(#pc4912d7871)">
     <use style="fill:#fde725;" x="400.793182" xlink:href="#C0_0_da64c6a613" y="615.6"/>
    </g>
    <g clip-path="url(#pc4912d7871)">
     <use style="fill:#fde725;" x="577.611907" xlink:href="#C0_0_da64c6a613" y="240.827366"/>
    </g>
    <g clip-path="url(#pc4912d7871)">
     <use style="fill:#fde725;" x="528.524582" xlink:href="#C0_0_da64c6a613" y="410.770053"/>
    </g>
    <g clip-path="url(#pc4912d7871)">
     <use style="fill:#fde725;" x="240.812535" xlink:href="#C0_0_da64c6a613" y="111.6"/>
    </g>
    <g clip-path="url(#pc4912d7871)">
     <use style="fill:#fde725;" x="121.026822" xlink:href="#C0_0_da64c6a613" y="244.944845"/>
    </g>
    <g clip-path="url(#pc4912d7871)">
     <use style="fill:#fde725;" x="622.636364" xlink:href="#C0_0_da64c6a613" y="338.906043"/>
    </g>
    <g clip-path="url(#pc4912d7871)">
     <use style="fill:#fde725;" x="406.498699" xlink:href="#C0_0_da64c6a613" y="227.91768"/>
    </g>
    <g clip-path="url(#pc4912d7871)">
     <use style="fill:#fde725;" x="154.112267" xlink:href="#C0_0_da64c6a613" y="303.985789"/>
    </g>
    <g clip-path="url(#pc4912d7871)">
     <use style="fill:#fde725;" x="318.431373" xlink:href="#C0_0_da64c6a613" y="374.541249"/>
    </g>
    <g clip-path="url(#pc4912d7871)">
     <use style="fill:#fde725;" x="194.263775" xlink:href="#C0_0_da64c6a613" y="333.952524"/>
    </g>
    <g clip-path="url(#pc4912d7871)">
     <use style="fill:#fde725;" x="419.760163" xlink:href="#C0_0_da64c6a613" y="355.275087"/>
    </g>
    <g clip-path="url(#pc4912d7871)">
     <use style="fill:#fde725;" x="544.413894" xlink:href="#C0_0_da64c6a613" y="365.399868"/>
    </g>
   </g>
   <g id="patch_3">
    <path d="M 90 640.8 
L 90 86.4 
" style="fill:none;stroke:#000000;stroke-linecap:square;stroke-linejoin:miter;stroke-width:0.8;"/>
   </g>
   <g id="patch_4">
    <path d="M 648 640.8 
L 648 86.4 
" style="fill:none;stroke:#000000;stroke-linecap:square;stroke-linejoin:miter;stroke-width:0.8;"/>
   </g>
   <g id="patch_5">
    <path d="M 90 640.8 
L 648 640.8 
" style="fill:none;stroke:#000000;stroke-linecap:square;stroke-linejoin:miter;stroke-width:0.8;"/>
   </g>
   <g id="patch_6">
    <path d="M 90 86.4 
L 648 86.4 
" style="fill:none;stroke:#000000;stroke-linecap:square;stroke-linejoin:miter;stroke-width:0.8;"/>
   </g>
   <g id="text_1">
    <!-- Network component 49 (n=47) -->
    <defs>
     <path d="M 9.8125 72.90625 
L 23.09375 72.90625 
L 55.421875 11.921875 
L 55.421875 72.90625 
L 64.984375 72.90625 
L 64.984375 0 
L 51.703125 0 
L 19.390625 60.984375 
L 19.390625 0 
L 9.8125 0 
z
" id="DejaVuSans-78"/>
     <path d="M 56.203125 29.59375 
L 56.203125 25.203125 
L 14.890625 25.203125 
Q 15.484375 15.921875 20.484375 11.0625 
Q 25.484375 6.203125 34.421875 6.203125 
Q 39.59375 6.203125 44.453125 7.46875 
Q 49.3125 8.734375 54.109375 11.28125 
L 54.109375 2.78125 
Q 49.265625 0.734375 44.1875 -0.34375 
Q 39.109375 -1.421875 33.890625 -1.421875 
Q 20.796875 -1.421875 13.15625 6.1875 
Q 5.515625 13.8125 5.515625 26.8125 
Q 5.515625 40.234375 12.765625 48.109375 
Q 20.015625 56 32.328125 56 
Q 43.359375 56 49.78125 48.890625 
Q 56.203125 41.796875 56.203125 29.59375 
z
M 47.21875 32.234375 
Q 47.125 39.59375 43.09375 43.984375 
Q 39.0625 48.390625 32.421875 48.390625 
Q 24.90625 48.390625 20.390625 44.140625 
Q 15.875 39.890625 15.1875 32.171875 
z
" id="DejaVuSans-101"/>
     <path d="M 18.3125 70.21875 
L 18.3125 54.6875 
L 36.8125 54.6875 
L 36.8125 47.703125 
L 18.3125 47.703125 
L 18.3125 18.015625 
Q 18.3125 11.328125 20.140625 9.421875 
Q 21.96875 7.515625 27.59375 7.515625 
L 36.8125 7.515625 
L 36.8125 0 
L 27.59375 0 
Q 17.1875 0 13.234375 3.875 
Q 9.28125 7.765625 9.28125 18.015625 
L 9.28125 47.703125 
L 2.6875 47.703125 
L 2.6875 54.6875 
L 9.28125 54.6875 
L 9.28125 70.21875 
z
" id="DejaVuSans-116"/>
     <path d="M 4.203125 54.6875 
L 13.1875 54.6875 
L 24.421875 12.015625 
L 35.59375 54.6875 
L 46.1875 54.6875 
L 57.421875 12.015625 
L 68.609375 54.6875 
L 77.59375 54.6875 
L 63.28125 0 
L 52.6875 0 
L 40.921875 44.828125 
L 29.109375 0 
L 18.5 0 
z
" id="DejaVuSans-119"/>
     <path d="M 30.609375 48.390625 
Q 23.390625 48.390625 19.1875 42.75 
Q 14.984375 37.109375 14.984375 27.296875 
Q 14.984375 17.484375 19.15625 11.84375 
Q 23.34375 6.203125 30.609375 6.203125 
Q 37.796875 6.203125 41.984375 11.859375 
Q 46.1875 17.53125 46.1875 27.296875 
Q 46.1875 37.015625 41.984375 42.703125 
Q 37.796875 48.390625 30.609375 48.390625 
z
M 30.609375 56 
Q 42.328125 56 49.015625 48.375 
Q 55.71875 40.765625 55.71875 27.296875 
Q 55.71875 13.875 49.015625 6.21875 
Q 42.328125 -1.421875 30.609375 -1.421875 
Q 18.84375 -1.421875 12.171875 6.21875 
Q 5.515625 13.875 5.515625 27.296875 
Q 5.515625 40.765625 12.171875 48.375 
Q 18.84375 56 30.609375 56 
z
" id="DejaVuSans-111"/>
     <path d="M 41.109375 46.296875 
Q 39.59375 47.171875 37.8125 47.578125 
Q 36.03125 48 33.890625 48 
Q 26.265625 48 22.1875 43.046875 
Q 18.109375 38.09375 18.109375 28.8125 
L 18.109375 0 
L 9.078125 0 
L 9.078125 54.6875 
L 18.109375 54.6875 
L 18.109375 46.1875 
Q 20.953125 51.171875 25.484375 53.578125 
Q 30.03125 56 36.53125 56 
Q 37.453125 56 38.578125 55.875 
Q 39.703125 55.765625 41.0625 55.515625 
z
" id="DejaVuSans-114"/>
     <path d="M 9.078125 75.984375 
L 18.109375 75.984375 
L 18.109375 31.109375 
L 44.921875 54.6875 
L 56.390625 54.6875 
L 27.390625 29.109375 
L 57.625 0 
L 45.90625 0 
L 18.109375 26.703125 
L 18.109375 0 
L 9.078125 0 
z
" id="DejaVuSans-107"/>
     <path id="DejaVuSans-32"/>
     <path d="M 48.78125 52.59375 
L 48.78125 44.1875 
Q 44.96875 46.296875 41.140625 47.34375 
Q 37.3125 48.390625 33.40625 48.390625 
Q 24.65625 48.390625 19.8125 42.84375 
Q 14.984375 37.3125 14.984375 27.296875 
Q 14.984375 17.28125 19.8125 11.734375 
Q 24.65625 6.203125 33.40625 6.203125 
Q 37.3125 6.203125 41.140625 7.25 
Q 44.96875 8.296875 48.78125 10.40625 
L 48.78125 2.09375 
Q 45.015625 0.34375 40.984375 -0.53125 
Q 36.96875 -1.421875 32.421875 -1.421875 
Q 20.0625 -1.421875 12.78125 6.34375 
Q 5.515625 14.109375 5.515625 27.296875 
Q 5.515625 40.671875 12.859375 48.328125 
Q 20.21875 56 33.015625 56 
Q 37.15625 56 41.109375 55.140625 
Q 45.0625 54.296875 48.78125 52.59375 
z
" id="DejaVuSans-99"/>
     <path d="M 52 44.1875 
Q 55.375 50.25 60.0625 53.125 
Q 64.75 56 71.09375 56 
Q 79.640625 56 84.28125 50.015625 
Q 88.921875 44.046875 88.921875 33.015625 
L 88.921875 0 
L 79.890625 0 
L 79.890625 32.71875 
Q 79.890625 40.578125 77.09375 44.375 
Q 74.3125 48.1875 68.609375 48.1875 
Q 61.625 48.1875 57.5625 43.546875 
Q 53.515625 38.921875 53.515625 30.90625 
L 53.515625 0 
L 44.484375 0 
L 44.484375 32.71875 
Q 44.484375 40.625 41.703125 44.40625 
Q 38.921875 48.1875 33.109375 48.1875 
Q 26.21875 48.1875 22.15625 43.53125 
Q 18.109375 38.875 18.109375 30.90625 
L 18.109375 0 
L 9.078125 0 
L 9.078125 54.6875 
L 18.109375 54.6875 
L 18.109375 46.1875 
Q 21.1875 51.21875 25.484375 53.609375 
Q 29.78125 56 35.6875 56 
Q 41.65625 56 45.828125 52.96875 
Q 50 49.953125 52 44.1875 
z
" id="DejaVuSans-109"/>
     <path d="M 18.109375 8.203125 
L 18.109375 -20.796875 
L 9.078125 -20.796875 
L 9.078125 54.6875 
L 18.109375 54.6875 
L 18.109375 46.390625 
Q 20.953125 51.265625 25.265625 53.625 
Q 29.59375 56 35.59375 56 
Q 45.5625 56 51.78125 48.09375 
Q 58.015625 40.1875 58.015625 27.296875 
Q 58.015625 14.40625 51.78125 6.484375 
Q 45.5625 -1.421875 35.59375 -1.421875 
Q 29.59375 -1.421875 25.265625 0.953125 
Q 20.953125 3.328125 18.109375 8.203125 
z
M 48.6875 27.296875 
Q 48.6875 37.203125 44.609375 42.84375 
Q 40.53125 48.484375 33.40625 48.484375 
Q 26.265625 48.484375 22.1875 42.84375 
Q 18.109375 37.203125 18.109375 27.296875 
Q 18.109375 17.390625 22.1875 11.75 
Q 26.265625 6.109375 33.40625 6.109375 
Q 40.53125 6.109375 44.609375 11.75 
Q 48.6875 17.390625 48.6875 27.296875 
z
" id="DejaVuSans-112"/>
     <path d="M 54.890625 33.015625 
L 54.890625 0 
L 45.90625 0 
L 45.90625 32.71875 
Q 45.90625 40.484375 42.875 44.328125 
Q 39.84375 48.1875 33.796875 48.1875 
Q 26.515625 48.1875 22.3125 43.546875 
Q 18.109375 38.921875 18.109375 30.90625 
L 18.109375 0 
L 9.078125 0 
L 9.078125 54.6875 
L 18.109375 54.6875 
L 18.109375 46.1875 
Q 21.34375 51.125 25.703125 53.5625 
Q 30.078125 56 35.796875 56 
Q 45.21875 56 50.046875 50.171875 
Q 54.890625 44.34375 54.890625 33.015625 
z
" id="DejaVuSans-110"/>
     <path d="M 37.796875 64.3125 
L 12.890625 25.390625 
L 37.796875 25.390625 
z
M 35.203125 72.90625 
L 47.609375 72.90625 
L 47.609375 25.390625 
L 58.015625 25.390625 
L 58.015625 17.1875 
L 47.609375 17.1875 
L 47.609375 0 
L 37.796875 0 
L 37.796875 17.1875 
L 4.890625 17.1875 
L 4.890625 26.703125 
z
" id="DejaVuSans-52"/>
     <path d="M 10.984375 1.515625 
L 10.984375 10.5 
Q 14.703125 8.734375 18.5 7.8125 
Q 22.3125 6.890625 25.984375 6.890625 
Q 35.75 6.890625 40.890625 13.453125 
Q 46.046875 20.015625 46.78125 33.40625 
Q 43.953125 29.203125 39.59375 26.953125 
Q 35.25 24.703125 29.984375 24.703125 
Q 19.046875 24.703125 12.671875 31.3125 
Q 6.296875 37.9375 6.296875 49.421875 
Q 6.296875 60.640625 12.9375 67.421875 
Q 19.578125 74.21875 30.609375 74.21875 
Q 43.265625 74.21875 49.921875 64.515625 
Q 56.59375 54.828125 56.59375 36.375 
Q 56.59375 19.140625 48.40625 8.859375 
Q 40.234375 -1.421875 26.421875 -1.421875 
Q 22.703125 -1.421875 18.890625 -0.6875 
Q 15.09375 0.046875 10.984375 1.515625 
z
M 30.609375 32.421875 
Q 37.25 32.421875 41.125 36.953125 
Q 45.015625 41.5 45.015625 49.421875 
Q 45.015625 57.28125 41.125 61.84375 
Q 37.25 66.40625 30.609375 66.40625 
Q 23.96875 66.40625 20.09375 61.84375 
Q 16.21875 57.28125 16.21875 49.421875 
Q 16.21875 41.5 20.09375 36.953125 
Q 23.96875 32.421875 30.609375 32.421875 
z
" id="DejaVuSans-57"/>
     <path d="M 31 75.875 
Q 24.46875 64.65625 21.28125 53.65625 
Q 18.109375 42.671875 18.109375 31.390625 
Q 18.109375 20.125 21.3125 9.0625 
Q 24.515625 -2 31 -13.1875 
L 23.1875 -13.1875 
Q 15.875 -1.703125 12.234375 9.375 
Q 8.59375 20.453125 8.59375 31.390625 
Q 8.59375 42.28125 12.203125 53.3125 
Q 15.828125 64.359375 23.1875 75.875 
z
" id="DejaVuSans-40"/>
     <path d="M 10.59375 45.40625 
L 73.1875 45.40625 
L 73.1875 37.203125 
L 10.59375 37.203125 
z
M 10.59375 25.484375 
L 73.1875 25.484375 
L 73.1875 17.1875 
L 10.59375 17.1875 
z
" id="DejaVuSans-61"/>
     <path d="M 8.203125 72.90625 
L 55.078125 72.90625 
L 55.078125 68.703125 
L 28.609375 0 
L 18.3125 0 
L 43.21875 64.59375 
L 8.203125 64.59375 
z
" id="DejaVuSans-55"/>
     <path d="M 8.015625 75.875 
L 15.828125 75.875 
Q 23.140625 64.359375 26.78125 53.3125 
Q 30.421875 42.28125 30.421875 31.390625 
Q 30.421875 20.453125 26.78125 9.375 
Q 23.140625 -1.703125 15.828125 -13.1875 
L 8.015625 -13.1875 
Q 14.5 -2 17.703125 9.0625 
Q 20.90625 20.125 20.90625 31.390625 
Q 20.90625 42.671875 17.703125 53.65625 
Q 14.5 64.65625 8.015625 75.875 
z
" id="DejaVuSans-41"/>
    </defs>
    <g transform="translate(275.50125 80.4)scale(0.12 -0.12)">
     <use xlink:href="#DejaVuSans-78"/>
     <use x="74.804688" xlink:href="#DejaVuSans-101"/>
     <use x="136.328125" xlink:href="#DejaVuSans-116"/>
     <use x="175.537109" xlink:href="#DejaVuSans-119"/>
     <use x="257.324219" xlink:href="#DejaVuSans-111"/>
     <use x="318.505859" xlink:href="#DejaVuSans-114"/>
     <use x="359.619141" xlink:href="#DejaVuSans-107"/>
     <use x="417.529297" xlink:href="#DejaVuSans-32"/>
     <use x="449.316406" xlink:href="#DejaVuSans-99"/>
     <use x="504.296875" xlink:href="#DejaVuSans-111"/>
     <use x="565.478516" xlink:href="#DejaVuSans-109"/>
     <use x="662.890625" xlink:href="#DejaVuSans-112"/>
     <use x="726.367188" xlink:href="#DejaVuSans-111"/>
     <use x="787.548828" xlink:href="#DejaVuSans-110"/>
     <use x="850.927734" xlink:href="#DejaVuSans-101"/>
     <use x="912.451172" xlink:href="#DejaVuSans-110"/>
     <use x="975.830078" xlink:href="#DejaVuSans-116"/>
     <use x="1015.039062" xlink:href="#DejaVuSans-32"/>
     <use x="1046.826172" xlink:href="#DejaVuSans-52"/>
     <use x="1110.449219" xlink:href="#DejaVuSans-57"/>
     <use x="1174.072266" xlink:href="#DejaVuSans-32"/>
     <use x="1205.859375" xlink:href="#DejaVuSans-40"/>
     <use x="1244.873047" xlink:href="#DejaVuSans-110"/>
     <use x="1308.251953" xlink:href="#DejaVuSans-61"/>
     <use x="1392.041016" xlink:href="#DejaVuSans-52"/>
     <use x="1455.664062" xlink:href="#DejaVuSans-55"/>
     <use x="1519.287109" xlink:href="#DejaVuSans-41"/>
    </g>
   </g>
   <g id="legend_1">
    <g id="patch_7">
     <path d="M 652.2 215.83125 
L 711.204375 215.83125 
Q 712.404375 215.83125 712.404375 214.63125 
L 712.404375 90.6 
Q 712.404375 89.4 711.204375 89.4 
L 652.2 89.4 
Q 651 89.4 651 90.6 
L 651 214.63125 
Q 651 215.83125 652.2 215.83125 
z
" style="fill:#ffffff;opacity:0.8;stroke:#cccccc;stroke-linejoin:miter;"/>
    </g>
    <g id="line2d_1"/>
    <g id="line2d_2">
     <defs>
      <path d="M 0 3 
C 0.795609 3 1.55874 2.683901 2.12132 2.12132 
C 2.683901 1.55874 3 0.795609 3 0 
C 3 -0.795609 2.683901 -1.55874 2.12132 -2.12132 
C 1.55874 -2.683901 0.795609 -3 0 -3 
C -0.795609 -3 -1.55874 -2.683901 -2.12132 -2.12132 
C -2.683901 -1.55874 -3 -0.795609 -3 0 
C -3 0.795609 -2.683901 1.55874 -2.12132 2.12132 
C -1.55874 2.683901 -0.795609 3 0 3 
z
" id="m2fc1411403" style="stroke:#440154;"/>
     </defs>
     <g>
      <use style="fill:#440154;stroke:#440154;" x="659.4" xlink:href="#m2fc1411403" y="94.259062"/>
     </g>
    </g>
    <g id="text_2">
     <!-- H2A -->
     <defs>
      <path d="M 9.8125 72.90625 
L 19.671875 72.90625 
L 19.671875 43.015625 
L 55.515625 43.015625 
L 55.515625 72.90625 
L 65.375 72.90625 
L 65.375 0 
L 55.515625 0 
L 55.515625 34.71875 
L 19.671875 34.71875 
L 19.671875 0 
L 9.8125 0 
z
" id="DejaVuSans-72"/>
      <path d="M 19.1875 8.296875 
L 53.609375 8.296875 
L 53.609375 0 
L 7.328125 0 
L 7.328125 8.296875 
Q 12.9375 14.109375 22.625 23.890625 
Q 32.328125 33.6875 34.8125 36.53125 
Q 39.546875 41.84375 41.421875 45.53125 
Q 43.3125 49.21875 43.3125 52.78125 
Q 43.3125 58.59375 39.234375 62.25 
Q 35.15625 65.921875 28.609375 65.921875 
Q 23.96875 65.921875 18.8125 64.3125 
Q 13.671875 62.703125 7.8125 59.421875 
L 7.8125 69.390625 
Q 13.765625 71.78125 18.9375 73 
Q 24.125 74.21875 28.421875 74.21875 
Q 39.75 74.21875 46.484375 68.546875 
Q 53.21875 62.890625 53.21875 53.421875 
Q 53.21875 48.921875 51.53125 44.890625 
Q 49.859375 40.875 45.40625 35.40625 
Q 44.1875 33.984375 37.640625 27.21875 
Q 31.109375 20.453125 19.1875 8.296875 
z
" id="DejaVuSans-50"/>
      <path d="M 34.1875 63.1875 
L 20.796875 26.90625 
L 47.609375 26.90625 
z
M 28.609375 72.90625 
L 39.796875 72.90625 
L 67.578125 0 
L 57.328125 0 
L 50.6875 18.703125 
L 17.828125 18.703125 
L 11.1875 0 
L 0.78125 0 
z
" id="DejaVuSans-65"/>
     </defs>
     <g transform="translate(670.2 96.359062)scale(0.06 -0.06)">
      <use xlink:href="#DejaVuSans-72"/>
      <use x="75.195312" xlink:href="#DejaVuSans-50"/>
      <use x="138.818359" xlink:href="#DejaVuSans-65"/>
     </g>
    </g>
    <g id="line2d_3"/>
    <g id="line2d_4">
     <defs>
      <path d="M 0 3 
C 0.795609 3 1.55874 2.683901 2.12132 2.12132 
C 2.683901 1.55874 3 0.795609 3 0 
C 3 -0.795609 2.683901 -1.55874 2.12132 -2.12132 
C 1.55874 -2.683901 0.795609 -3 0 -3 
C -0.795609 -3 -1.55874 -2.683901 -2.12132 -2.12132 
C -2.683901 -1.55874 -3 -0.795609 -3 0 
C -3 0.795609 -2.683901 1.55874 -2.12132 2.12132 
C -1.55874 2.683901 -0.795609 3 0 3 
z
" id="m237a3732d5" style="stroke:#481c6e;"/>
     </defs>
     <g>
      <use style="fill:#481c6e;stroke:#481c6e;" x="659.4" xlink:href="#m237a3732d5" y="103.065937"/>
     </g>
    </g>
    <g id="text_3">
     <!-- H2AZ -->
     <defs>
      <path d="M 5.609375 72.90625 
L 62.890625 72.90625 
L 62.890625 65.375 
L 16.796875 8.296875 
L 64.015625 8.296875 
L 64.015625 0 
L 4.5 0 
L 4.5 7.515625 
L 50.59375 64.59375 
L 5.609375 64.59375 
z
" id="DejaVuSans-90"/>
     </defs>
     <g transform="translate(670.2 105.165937)scale(0.06 -0.06)">
      <use xlink:href="#DejaVuSans-72"/>
      <use x="75.195312" xlink:href="#DejaVuSans-50"/>
      <use x="138.818359" xlink:href="#DejaVuSans-65"/>
      <use x="207.226562" xlink:href="#DejaVuSans-90"/>
     </g>
    </g>
    <g id="line2d_5"/>
    <g id="line2d_6">
     <defs>
      <path d="M 0 3 
C 0.795609 3 1.55874 2.683901 2.12132 2.12132 
C 2.683901 1.55874 3 0.795609 3 0 
C 3 -0.795609 2.683901 -1.55874 2.12132 -2.12132 
C 1.55874 -2.683901 0.795609 -3 0 -3 
C -0.795609 -3 -1.55874 -2.683901 -2.12132 -2.12132 
C -2.683901 -1.55874 -3 -0.795609 -3 0 
C -3 0.795609 -2.683901 1.55874 -2.12132 2.12132 
C -1.55874 2.683901 -0.795609 3 0 3 
z
" id="mf937d97e22" style="stroke:#453581;"/>
     </defs>
     <g>
      <use style="fill:#453581;stroke:#453581;" x="659.4" xlink:href="#mf937d97e22" y="111.872812"/>
     </g>
    </g>
    <g id="text_4">
     <!-- H2B -->
     <defs>
      <path d="M 19.671875 34.8125 
L 19.671875 8.109375 
L 35.5 8.109375 
Q 43.453125 8.109375 47.28125 11.40625 
Q 51.125 14.703125 51.125 21.484375 
Q 51.125 28.328125 47.28125 31.5625 
Q 43.453125 34.8125 35.5 34.8125 
z
M 19.671875 64.796875 
L 19.671875 42.828125 
L 34.28125 42.828125 
Q 41.5 42.828125 45.03125 45.53125 
Q 48.578125 48.25 48.578125 53.8125 
Q 48.578125 59.328125 45.03125 62.0625 
Q 41.5 64.796875 34.28125 64.796875 
z
M 9.8125 72.90625 
L 35.015625 72.90625 
Q 46.296875 72.90625 52.390625 68.21875 
Q 58.5 63.53125 58.5 54.890625 
Q 58.5 48.1875 55.375 44.234375 
Q 52.25 40.28125 46.1875 39.3125 
Q 53.46875 37.75 57.5 32.78125 
Q 61.53125 27.828125 61.53125 20.40625 
Q 61.53125 10.640625 54.890625 5.3125 
Q 48.25 0 35.984375 0 
L 9.8125 0 
z
" id="DejaVuSans-66"/>
     </defs>
     <g transform="translate(670.2 113.972812)scale(0.06 -0.06)">
      <use xlink:href="#DejaVuSans-72"/>
      <use x="75.195312" xlink:href="#DejaVuSans-50"/>
      <use x="138.818359" xlink:href="#DejaVuSans-66"/>
     </g>
    </g>
    <g id="line2d_7"/>
    <g id="line2d_8">
     <defs>
      <path d="M 0 3 
C 0.795609 3 1.55874 2.683901 2.12132 2.12132 
C 2.683901 1.55874 3 0.795609 3 0 
C 3 -0.795609 2.683901 -1.55874 2.12132 -2.12132 
C 1.55874 -2.683901 0.795609 -3 0 -3 
C -0.795609 -3 -1.55874 -2.683901 -2.12132 -2.12132 
C -2.683901 -1.55874 -3 -0.795609 -3 0 
C -3 0.795609 -2.683901 1.55874 -2.12132 2.12132 
C -1.55874 2.683901 -0.795609 3 0 3 
z
" id="m074935befd" style="stroke:#3d4d8a;"/>
     </defs>
     <g>
      <use style="fill:#3d4d8a;stroke:#3d4d8a;" x="659.4" xlink:href="#m074935befd" y="120.679687"/>
     </g>
    </g>
    <g id="text_5">
     <!-- H3 -->
     <defs>
      <path d="M 40.578125 39.3125 
Q 47.65625 37.796875 51.625 33 
Q 55.609375 28.21875 55.609375 21.1875 
Q 55.609375 10.40625 48.1875 4.484375 
Q 40.765625 -1.421875 27.09375 -1.421875 
Q 22.515625 -1.421875 17.65625 -0.515625 
Q 12.796875 0.390625 7.625 2.203125 
L 7.625 11.71875 
Q 11.71875 9.328125 16.59375 8.109375 
Q 21.484375 6.890625 26.8125 6.890625 
Q 36.078125 6.890625 40.9375 10.546875 
Q 45.796875 14.203125 45.796875 21.1875 
Q 45.796875 27.640625 41.28125 31.265625 
Q 36.765625 34.90625 28.71875 34.90625 
L 20.21875 34.90625 
L 20.21875 43.015625 
L 29.109375 43.015625 
Q 36.375 43.015625 40.234375 45.921875 
Q 44.09375 48.828125 44.09375 54.296875 
Q 44.09375 59.90625 40.109375 62.90625 
Q 36.140625 65.921875 28.71875 65.921875 
Q 24.65625 65.921875 20.015625 65.03125 
Q 15.375 64.15625 9.8125 62.3125 
L 9.8125 71.09375 
Q 15.4375 72.65625 20.34375 73.4375 
Q 25.25 74.21875 29.59375 74.21875 
Q 40.828125 74.21875 47.359375 69.109375 
Q 53.90625 64.015625 53.90625 55.328125 
Q 53.90625 49.265625 50.4375 45.09375 
Q 46.96875 40.921875 40.578125 39.3125 
z
" id="DejaVuSans-51"/>
     </defs>
     <g transform="translate(670.2 122.779687)scale(0.06 -0.06)">
      <use xlink:href="#DejaVuSans-72"/>
      <use x="75.195312" xlink:href="#DejaVuSans-51"/>
     </g>
    </g>
    <g id="line2d_9"/>
    <g id="line2d_10">
     <defs>
      <path d="M 0 3 
C 0.795609 3 1.55874 2.683901 2.12132 2.12132 
C 2.683901 1.55874 3 0.795609 3 0 
C 3 -0.795609 2.683901 -1.55874 2.12132 -2.12132 
C 1.55874 -2.683901 0.795609 -3 0 -3 
C -0.795609 -3 -1.55874 -2.683901 -2.12132 -2.12132 
C -2.683901 -1.55874 -3 -0.795609 -3 0 
C -3 0.795609 -2.683901 1.55874 -2.12132 2.12132 
C -1.55874 2.683901 -0.795609 3 0 3 
z
" id="mee661bf7b1" style="stroke:#34618d;"/>
     </defs>
     <g>
      <use style="fill:#34618d;stroke:#34618d;" x="659.4" xlink:href="#mee661bf7b1" y="129.486562"/>
     </g>
    </g>
    <g id="text_6">
     <!-- H4 -->
     <g transform="translate(670.2 131.586562)scale(0.06 -0.06)">
      <use xlink:href="#DejaVuSans-72"/>
      <use x="75.195312" xlink:href="#DejaVuSans-52"/>
     </g>
    </g>
    <g id="line2d_11"/>
    <g id="line2d_12">
     <defs>
      <path d="M 0 3 
C 0.795609 3 1.55874 2.683901 2.12132 2.12132 
C 2.683901 1.55874 3 0.795609 3 0 
C 3 -0.795609 2.683901 -1.55874 2.12132 -2.12132 
C 1.55874 -2.683901 0.795609 -3 0 -3 
C -0.795609 -3 -1.55874 -2.683901 -2.12132 -2.12132 
C -2.683901 -1.55874 -3 -0.795609 -3 0 
C -3 0.795609 -2.683901 1.55874 -2.12132 2.12132 
C -1.55874 2.683901 -0.795609 3 0 3 
z
" id="m67c06570ee" style="stroke:#2b748e;"/>
     </defs>
     <g>
      <use style="fill:#2b748e;stroke:#2b748e;" x="659.4" xlink:href="#m67c06570ee" y="138.293437"/>
     </g>
    </g>
    <g id="text_7">
     <!-- macroH2A -->
     <defs>
      <path d="M 34.28125 27.484375 
Q 23.390625 27.484375 19.1875 25 
Q 14.984375 22.515625 14.984375 16.5 
Q 14.984375 11.71875 18.140625 8.90625 
Q 21.296875 6.109375 26.703125 6.109375 
Q 34.1875 6.109375 38.703125 11.40625 
Q 43.21875 16.703125 43.21875 25.484375 
L 43.21875 27.484375 
z
M 52.203125 31.203125 
L 52.203125 0 
L 43.21875 0 
L 43.21875 8.296875 
Q 40.140625 3.328125 35.546875 0.953125 
Q 30.953125 -1.421875 24.3125 -1.421875 
Q 15.921875 -1.421875 10.953125 3.296875 
Q 6 8.015625 6 15.921875 
Q 6 25.140625 12.171875 29.828125 
Q 18.359375 34.515625 30.609375 34.515625 
L 43.21875 34.515625 
L 43.21875 35.40625 
Q 43.21875 41.609375 39.140625 45 
Q 35.0625 48.390625 27.6875 48.390625 
Q 23 48.390625 18.546875 47.265625 
Q 14.109375 46.140625 10.015625 43.890625 
L 10.015625 52.203125 
Q 14.9375 54.109375 19.578125 55.046875 
Q 24.21875 56 28.609375 56 
Q 40.484375 56 46.34375 49.84375 
Q 52.203125 43.703125 52.203125 31.203125 
z
" id="DejaVuSans-97"/>
     </defs>
     <g transform="translate(670.2 140.393437)scale(0.06 -0.06)">
      <use xlink:href="#DejaVuSans-109"/>
      <use x="97.412109" xlink:href="#DejaVuSans-97"/>
      <use x="158.691406" xlink:href="#DejaVuSans-99"/>
      <use x="213.671875" xlink:href="#DejaVuSans-114"/>
      <use x="252.535156" xlink:href="#DejaVuSans-111"/>
      <use x="313.716797" xlink:href="#DejaVuSans-72"/>
      <use x="388.912109" xlink:href="#DejaVuSans-50"/>
      <use x="452.535156" xlink:href="#DejaVuSans-65"/>
     </g>
    </g>
    <g id="line2d_13"/>
    <g id="line2d_14">
     <defs>
      <path d="M 0 3 
C 0.795609 3 1.55874 2.683901 2.12132 2.12132 
C 2.683901 1.55874 3 0.795609 3 0 
C 3 -0.795609 2.683901 -1.55874 2.12132 -2.12132 
C 1.55874 -2.683901 0.795609 -3 0 -3 
C -0.795609 -3 -1.55874 -2.683901 -2.12132 -2.12132 
C -2.683901 -1.55874 -3 -0.795609 -3 0 
C -3 0.795609 -2.683901 1.55874 -2.12132 2.12132 
C -1.55874 2.683901 -0.795609 3 0 3 
z
" id="m7b57c9756d" style="stroke:#24878e;"/>
     </defs>
     <g>
      <use style="fill:#24878e;stroke:#24878e;" x="659.4" xlink:href="#m7b57c9756d" y="147.100312"/>
     </g>
    </g>
    <g id="text_8">
     <!-- other_CENP -->
     <defs>
      <path d="M 54.890625 33.015625 
L 54.890625 0 
L 45.90625 0 
L 45.90625 32.71875 
Q 45.90625 40.484375 42.875 44.328125 
Q 39.84375 48.1875 33.796875 48.1875 
Q 26.515625 48.1875 22.3125 43.546875 
Q 18.109375 38.921875 18.109375 30.90625 
L 18.109375 0 
L 9.078125 0 
L 9.078125 75.984375 
L 18.109375 75.984375 
L 18.109375 46.1875 
Q 21.34375 51.125 25.703125 53.5625 
Q 30.078125 56 35.796875 56 
Q 45.21875 56 50.046875 50.171875 
Q 54.890625 44.34375 54.890625 33.015625 
z
" id="DejaVuSans-104"/>
      <path d="M 50.984375 -16.609375 
L 50.984375 -23.578125 
L -0.984375 -23.578125 
L -0.984375 -16.609375 
z
" id="DejaVuSans-95"/>
      <path d="M 64.40625 67.28125 
L 64.40625 56.890625 
Q 59.421875 61.53125 53.78125 63.8125 
Q 48.140625 66.109375 41.796875 66.109375 
Q 29.296875 66.109375 22.65625 58.46875 
Q 16.015625 50.828125 16.015625 36.375 
Q 16.015625 21.96875 22.65625 14.328125 
Q 29.296875 6.6875 41.796875 6.6875 
Q 48.140625 6.6875 53.78125 8.984375 
Q 59.421875 11.28125 64.40625 15.921875 
L 64.40625 5.609375 
Q 59.234375 2.09375 53.4375 0.328125 
Q 47.65625 -1.421875 41.21875 -1.421875 
Q 24.65625 -1.421875 15.125 8.703125 
Q 5.609375 18.84375 5.609375 36.375 
Q 5.609375 53.953125 15.125 64.078125 
Q 24.65625 74.21875 41.21875 74.21875 
Q 47.75 74.21875 53.53125 72.484375 
Q 59.328125 70.75 64.40625 67.28125 
z
" id="DejaVuSans-67"/>
      <path d="M 9.8125 72.90625 
L 55.90625 72.90625 
L 55.90625 64.59375 
L 19.671875 64.59375 
L 19.671875 43.015625 
L 54.390625 43.015625 
L 54.390625 34.71875 
L 19.671875 34.71875 
L 19.671875 8.296875 
L 56.78125 8.296875 
L 56.78125 0 
L 9.8125 0 
z
" id="DejaVuSans-69"/>
      <path d="M 19.671875 64.796875 
L 19.671875 37.40625 
L 32.078125 37.40625 
Q 38.96875 37.40625 42.71875 40.96875 
Q 46.484375 44.53125 46.484375 51.125 
Q 46.484375 57.671875 42.71875 61.234375 
Q 38.96875 64.796875 32.078125 64.796875 
z
M 9.8125 72.90625 
L 32.078125 72.90625 
Q 44.34375 72.90625 50.609375 67.359375 
Q 56.890625 61.8125 56.890625 51.125 
Q 56.890625 40.328125 50.609375 34.8125 
Q 44.34375 29.296875 32.078125 29.296875 
L 19.671875 29.296875 
L 19.671875 0 
L 9.8125 0 
z
" id="DejaVuSans-80"/>
     </defs>
     <g transform="translate(670.2 149.200312)scale(0.06 -0.06)">
      <use xlink:href="#DejaVuSans-111"/>
      <use x="61.181641" xlink:href="#DejaVuSans-116"/>
      <use x="100.390625" xlink:href="#DejaVuSans-104"/>
      <use x="163.769531" xlink:href="#DejaVuSans-101"/>
      <use x="225.292969" xlink:href="#DejaVuSans-114"/>
      <use x="266.40625" xlink:href="#DejaVuSans-95"/>
      <use x="316.40625" xlink:href="#DejaVuSans-67"/>
      <use x="386.230469" xlink:href="#DejaVuSans-69"/>
      <use x="449.414062" xlink:href="#DejaVuSans-78"/>
      <use x="524.21875" xlink:href="#DejaVuSans-80"/>
     </g>
    </g>
    <g id="line2d_15"/>
    <g id="line2d_16">
     <defs>
      <path d="M 0 3 
C 0.795609 3 1.55874 2.683901 2.12132 2.12132 
C 2.683901 1.55874 3 0.795609 3 0 
C 3 -0.795609 2.683901 -1.55874 2.12132 -2.12132 
C 1.55874 -2.683901 0.795609 -3 0 -3 
C -0.795609 -3 -1.55874 -2.683901 -2.12132 -2.12132 
C -2.683901 -1.55874 -3 -0.795609 -3 0 
C -3 0.795609 -2.683901 1.55874 -2.12132 2.12132 
C -1.55874 2.683901 -0.795609 3 0 3 
z
" id="m14f23f5f47" style="stroke:#1f998a;"/>
     </defs>
     <g>
      <use style="fill:#1f998a;stroke:#1f998a;" x="659.4" xlink:href="#m14f23f5f47" y="156.074062"/>
     </g>
    </g>
    <g id="text_9">
     <!-- other_CHRAC -->
     <defs>
      <path d="M 44.390625 34.1875 
Q 47.5625 33.109375 50.5625 29.59375 
Q 53.5625 26.078125 56.59375 19.921875 
L 66.609375 0 
L 56 0 
L 46.6875 18.703125 
Q 43.0625 26.03125 39.671875 28.421875 
Q 36.28125 30.8125 30.421875 30.8125 
L 19.671875 30.8125 
L 19.671875 0 
L 9.8125 0 
L 9.8125 72.90625 
L 32.078125 72.90625 
Q 44.578125 72.90625 50.734375 67.671875 
Q 56.890625 62.453125 56.890625 51.90625 
Q 56.890625 45.015625 53.6875 40.46875 
Q 50.484375 35.9375 44.390625 34.1875 
z
M 19.671875 64.796875 
L 19.671875 38.921875 
L 32.078125 38.921875 
Q 39.203125 38.921875 42.84375 42.21875 
Q 46.484375 45.515625 46.484375 51.90625 
Q 46.484375 58.296875 42.84375 61.546875 
Q 39.203125 64.796875 32.078125 64.796875 
z
" id="DejaVuSans-82"/>
     </defs>
     <g transform="translate(670.2 158.174062)scale(0.06 -0.06)">
      <use xlink:href="#DejaVuSans-111"/>
      <use x="61.181641" xlink:href="#DejaVuSans-116"/>
      <use x="100.390625" xlink:href="#DejaVuSans-104"/>
      <use x="163.769531" xlink:href="#DejaVuSans-101"/>
      <use x="225.292969" xlink:href="#DejaVuSans-114"/>
      <use x="266.40625" xlink:href="#DejaVuSans-95"/>
      <use x="316.40625" xlink:href="#DejaVuSans-67"/>
      <use x="386.230469" xlink:href="#DejaVuSans-72"/>
      <use x="461.425781" xlink:href="#DejaVuSans-82"/>
      <use x="526.908203" xlink:href="#DejaVuSans-65"/>
      <use x="593.566406" xlink:href="#DejaVuSans-67"/>
     </g>
    </g>
    <g id="line2d_17"/>
    <g id="line2d_18">
     <defs>
      <path d="M 0 3 
C 0.795609 3 1.55874 2.683901 2.12132 2.12132 
C 2.683901 1.55874 3 0.795609 3 0 
C 3 -0.795609 2.683901 -1.55874 2.12132 -2.12132 
C 1.55874 -2.683901 0.795609 -3 0 -3 
C -0.795609 -3 -1.55874 -2.683901 -2.12132 -2.12132 
C -2.683901 -1.55874 -3 -0.795609 -3 0 
C -3 0.795609 -2.683901 1.55874 -2.12132 2.12132 
C -1.55874 2.683901 -0.795609 3 0 3 
z
" id="m1b30976595" style="stroke:#25ac82;"/>
     </defs>
     <g>
      <use style="fill:#25ac82;stroke:#25ac82;" x="659.4" xlink:href="#m1b30976595" y="165.047812"/>
     </g>
    </g>
    <g id="text_10">
     <!-- other_DR1 -->
     <defs>
      <path d="M 19.671875 64.796875 
L 19.671875 8.109375 
L 31.59375 8.109375 
Q 46.6875 8.109375 53.6875 14.9375 
Q 60.6875 21.78125 60.6875 36.53125 
Q 60.6875 51.171875 53.6875 57.984375 
Q 46.6875 64.796875 31.59375 64.796875 
z
M 9.8125 72.90625 
L 30.078125 72.90625 
Q 51.265625 72.90625 61.171875 64.09375 
Q 71.09375 55.28125 71.09375 36.53125 
Q 71.09375 17.671875 61.125 8.828125 
Q 51.171875 0 30.078125 0 
L 9.8125 0 
z
" id="DejaVuSans-68"/>
      <path d="M 12.40625 8.296875 
L 28.515625 8.296875 
L 28.515625 63.921875 
L 10.984375 60.40625 
L 10.984375 69.390625 
L 28.421875 72.90625 
L 38.28125 72.90625 
L 38.28125 8.296875 
L 54.390625 8.296875 
L 54.390625 0 
L 12.40625 0 
z
" id="DejaVuSans-49"/>
     </defs>
     <g transform="translate(670.2 167.147812)scale(0.06 -0.06)">
      <use xlink:href="#DejaVuSans-111"/>
      <use x="61.181641" xlink:href="#DejaVuSans-116"/>
      <use x="100.390625" xlink:href="#DejaVuSans-104"/>
      <use x="163.769531" xlink:href="#DejaVuSans-101"/>
      <use x="225.292969" xlink:href="#DejaVuSans-114"/>
      <use x="266.40625" xlink:href="#DejaVuSans-95"/>
      <use x="316.40625" xlink:href="#DejaVuSans-68"/>
      <use x="393.408203" xlink:href="#DejaVuSans-82"/>
      <use x="462.890625" xlink:href="#DejaVuSans-49"/>
     </g>
    </g>
    <g id="line2d_19"/>
    <g id="line2d_20">
     <defs>
      <path d="M 0 3 
C 0.795609 3 1.55874 2.683901 2.12132 2.12132 
C 2.683901 1.55874 3 0.795609 3 0 
C 3 -0.795609 2.683901 -1.55874 2.12132 -2.12132 
C 1.55874 -2.683901 0.795609 -3 0 -3 
C -0.795609 -3 -1.55874 -2.683901 -2.12132 -2.12132 
C -2.683901 -1.55874 -3 -0.795609 -3 0 
C -3 0.795609 -2.683901 1.55874 -2.12132 2.12132 
C -1.55874 2.683901 -0.795609 3 0 3 
z
" id="mad893f4e9d" style="stroke:#40bd72;"/>
     </defs>
     <g>
      <use style="fill:#40bd72;stroke:#40bd72;" x="659.4" xlink:href="#mad893f4e9d" y="174.021562"/>
     </g>
    </g>
    <g id="text_11">
     <!-- other_DRAP1 -->
     <g transform="translate(670.2 176.121562)scale(0.06 -0.06)">
      <use xlink:href="#DejaVuSans-111"/>
      <use x="61.181641" xlink:href="#DejaVuSans-116"/>
      <use x="100.390625" xlink:href="#DejaVuSans-104"/>
      <use x="163.769531" xlink:href="#DejaVuSans-101"/>
      <use x="225.292969" xlink:href="#DejaVuSans-114"/>
      <use x="266.40625" xlink:href="#DejaVuSans-95"/>
      <use x="316.40625" xlink:href="#DejaVuSans-68"/>
      <use x="393.408203" xlink:href="#DejaVuSans-82"/>
      <use x="458.890625" xlink:href="#DejaVuSans-65"/>
      <use x="527.298828" xlink:href="#DejaVuSans-80"/>
      <use x="587.601562" xlink:href="#DejaVuSans-49"/>
     </g>
    </g>
    <g id="line2d_21"/>
    <g id="line2d_22">
     <defs>
      <path d="M 0 3 
C 0.795609 3 1.55874 2.683901 2.12132 2.12132 
C 2.683901 1.55874 3 0.795609 3 0 
C 3 -0.795609 2.683901 -1.55874 2.12132 -2.12132 
C 1.55874 -2.683901 0.795609 -3 0 -3 
C -0.795609 -3 -1.55874 -2.683901 -2.12132 -2.12132 
C -2.683901 -1.55874 -3 -0.795609 -3 0 
C -3 0.795609 -2.683901 1.55874 -2.12132 2.12132 
C -1.55874 2.683901 -0.795609 3 0 3 
z
" id="m23cbb72e60" style="stroke:#67cc5c;"/>
     </defs>
     <g>
      <use style="fill:#67cc5c;stroke:#67cc5c;" x="659.4" xlink:href="#m23cbb72e60" y="182.995312"/>
     </g>
    </g>
    <g id="text_12">
     <!-- other_NFY -->
     <defs>
      <path d="M 9.8125 72.90625 
L 51.703125 72.90625 
L 51.703125 64.59375 
L 19.671875 64.59375 
L 19.671875 43.109375 
L 48.578125 43.109375 
L 48.578125 34.8125 
L 19.671875 34.8125 
L 19.671875 0 
L 9.8125 0 
z
" id="DejaVuSans-70"/>
      <path d="M -0.203125 72.90625 
L 10.40625 72.90625 
L 30.609375 42.921875 
L 50.6875 72.90625 
L 61.28125 72.90625 
L 35.5 34.71875 
L 35.5 0 
L 25.59375 0 
L 25.59375 34.71875 
z
" id="DejaVuSans-89"/>
     </defs>
     <g transform="translate(670.2 185.095312)scale(0.06 -0.06)">
      <use xlink:href="#DejaVuSans-111"/>
      <use x="61.181641" xlink:href="#DejaVuSans-116"/>
      <use x="100.390625" xlink:href="#DejaVuSans-104"/>
      <use x="163.769531" xlink:href="#DejaVuSans-101"/>
      <use x="225.292969" xlink:href="#DejaVuSans-114"/>
      <use x="266.40625" xlink:href="#DejaVuSans-95"/>
      <use x="316.40625" xlink:href="#DejaVuSans-78"/>
      <use x="391.210938" xlink:href="#DejaVuSans-70"/>
      <use x="448.730469" xlink:href="#DejaVuSans-89"/>
     </g>
    </g>
    <g id="line2d_23"/>
    <g id="line2d_24">
     <defs>
      <path d="M 0 3 
C 0.795609 3 1.55874 2.683901 2.12132 2.12132 
C 2.683901 1.55874 3 0.795609 3 0 
C 3 -0.795609 2.683901 -1.55874 2.12132 -2.12132 
C 1.55874 -2.683901 0.795609 -3 0 -3 
C -0.795609 -3 -1.55874 -2.683901 -2.12132 -2.12132 
C -2.683901 -1.55874 -3 -0.795609 -3 0 
C -3 0.795609 -2.683901 1.55874 -2.12132 2.12132 
C -1.55874 2.683901 -0.795609 3 0 3 
z
" id="mbd02cbcf33" style="stroke:#98d83e;"/>
     </defs>
     <g>
      <use style="fill:#98d83e;stroke:#98d83e;" x="659.4" xlink:href="#mbd02cbcf33" y="191.969062"/>
     </g>
    </g>
    <g id="text_13">
     <!-- other_POLE -->
     <defs>
      <path d="M 39.40625 66.21875 
Q 28.65625 66.21875 22.328125 58.203125 
Q 16.015625 50.203125 16.015625 36.375 
Q 16.015625 22.609375 22.328125 14.59375 
Q 28.65625 6.59375 39.40625 6.59375 
Q 50.140625 6.59375 56.421875 14.59375 
Q 62.703125 22.609375 62.703125 36.375 
Q 62.703125 50.203125 56.421875 58.203125 
Q 50.140625 66.21875 39.40625 66.21875 
z
M 39.40625 74.21875 
Q 54.734375 74.21875 63.90625 63.9375 
Q 73.09375 53.65625 73.09375 36.375 
Q 73.09375 19.140625 63.90625 8.859375 
Q 54.734375 -1.421875 39.40625 -1.421875 
Q 24.03125 -1.421875 14.8125 8.828125 
Q 5.609375 19.09375 5.609375 36.375 
Q 5.609375 53.65625 14.8125 63.9375 
Q 24.03125 74.21875 39.40625 74.21875 
z
" id="DejaVuSans-79"/>
      <path d="M 9.8125 72.90625 
L 19.671875 72.90625 
L 19.671875 8.296875 
L 55.171875 8.296875 
L 55.171875 0 
L 9.8125 0 
z
" id="DejaVuSans-76"/>
     </defs>
     <g transform="translate(670.2 194.069062)scale(0.06 -0.06)">
      <use xlink:href="#DejaVuSans-111"/>
      <use x="61.181641" xlink:href="#DejaVuSans-116"/>
      <use x="100.390625" xlink:href="#DejaVuSans-104"/>
      <use x="163.769531" xlink:href="#DejaVuSans-101"/>
      <use x="225.292969" xlink:href="#DejaVuSans-114"/>
      <use x="266.40625" xlink:href="#DejaVuSans-95"/>
      <use x="316.40625" xlink:href="#DejaVuSans-80"/>
      <use x="376.708984" xlink:href="#DejaVuSans-79"/>
      <use x="455.419922" xlink:href="#DejaVuSans-76"/>
      <use x="511.132812" xlink:href="#DejaVuSans-69"/>
     </g>
    </g>
    <g id="line2d_25"/>
    <g id="line2d_26">
     <defs>
      <path d="M 0 3 
C 0.795609 3 1.55874 2.683901 2.12132 2.12132 
C 2.683901 1.55874 3 0.795609 3 0 
C 3 -0.795609 2.683901 -1.55874 2.12132 -2.12132 
C 1.55874 -2.683901 0.795609 -3 0 -3 
C -0.795609 -3 -1.55874 -2.683901 -2.12132 -2.12132 
C -2.683901 -1.55874 -3 -0.795609 -3 0 
C -3 0.795609 -2.683901 1.55874 -2.12132 2.12132 
C -1.55874 2.683901 -0.795609 3 0 3 
z
" id="ma054603a2c" style="stroke:#cde11d;"/>
     </defs>
     <g>
      <use style="fill:#cde11d;stroke:#cde11d;" x="659.4" xlink:href="#ma054603a2c" y="200.942812"/>
     </g>
    </g>
    <g id="text_14">
     <!-- other_SOS -->
     <defs>
      <path d="M 53.515625 70.515625 
L 53.515625 60.890625 
Q 47.90625 63.578125 42.921875 64.890625 
Q 37.9375 66.21875 33.296875 66.21875 
Q 25.25 66.21875 20.875 63.09375 
Q 16.5 59.96875 16.5 54.203125 
Q 16.5 49.359375 19.40625 46.890625 
Q 22.3125 44.4375 30.421875 42.921875 
L 36.375 41.703125 
Q 47.40625 39.59375 52.65625 34.296875 
Q 57.90625 29 57.90625 20.125 
Q 57.90625 9.515625 50.796875 4.046875 
Q 43.703125 -1.421875 29.984375 -1.421875 
Q 24.8125 -1.421875 18.96875 -0.25 
Q 13.140625 0.921875 6.890625 3.21875 
L 6.890625 13.375 
Q 12.890625 10.015625 18.65625 8.296875 
Q 24.421875 6.59375 29.984375 6.59375 
Q 38.421875 6.59375 43.015625 9.90625 
Q 47.609375 13.234375 47.609375 19.390625 
Q 47.609375 24.75 44.3125 27.78125 
Q 41.015625 30.8125 33.5 32.328125 
L 27.484375 33.5 
Q 16.453125 35.6875 11.515625 40.375 
Q 6.59375 45.0625 6.59375 53.421875 
Q 6.59375 63.09375 13.40625 68.65625 
Q 20.21875 74.21875 32.171875 74.21875 
Q 37.3125 74.21875 42.625 73.28125 
Q 47.953125 72.359375 53.515625 70.515625 
z
" id="DejaVuSans-83"/>
     </defs>
     <g transform="translate(670.2 203.042812)scale(0.06 -0.06)">
      <use xlink:href="#DejaVuSans-111"/>
      <use x="61.181641" xlink:href="#DejaVuSans-116"/>
      <use x="100.390625" xlink:href="#DejaVuSans-104"/>
      <use x="163.769531" xlink:href="#DejaVuSans-101"/>
      <use x="225.292969" xlink:href="#DejaVuSans-114"/>
      <use x="266.40625" xlink:href="#DejaVuSans-95"/>
      <use x="316.40625" xlink:href="#DejaVuSans-83"/>
      <use x="379.882812" xlink:href="#DejaVuSans-79"/>
      <use x="458.59375" xlink:href="#DejaVuSans-83"/>
     </g>
    </g>
    <g id="line2d_27"/>
    <g id="line2d_28">
     <defs>
      <path d="M 0 3 
C 0.795609 3 1.55874 2.683901 2.12132 2.12132 
C 2.683901 1.55874 3 0.795609 3 0 
C 3 -0.795609 2.683901 -1.55874 2.12132 -2.12132 
C 1.55874 -2.683901 0.795609 -3 0 -3 
C -0.795609 -3 -1.55874 -2.683901 -2.12132 -2.12132 
C -2.683901 -1.55874 -3 -0.795609 -3 0 
C -3 0.795609 -2.683901 1.55874 -2.12132 2.12132 
C -1.55874 2.683901 -0.795609 3 0 3 
z
" id="md533ebc662" style="stroke:#fde725;"/>
     </defs>
     <g>
      <use style="fill:#fde725;stroke:#fde725;" x="659.4" xlink:href="#md533ebc662" y="209.916562"/>
     </g>
    </g>
    <g id="text_15">
     <!-- other_TAF -->
     <defs>
      <path d="M -0.296875 72.90625 
L 61.375 72.90625 
L 61.375 64.59375 
L 35.5 64.59375 
L 35.5 0 
L 25.59375 0 
L 25.59375 64.59375 
L -0.296875 64.59375 
z
" id="DejaVuSans-84"/>
     </defs>
     <g transform="translate(670.2 212.016562)scale(0.06 -0.06)">
      <use xlink:href="#DejaVuSans-111"/>
      <use x="61.181641" xlink:href="#DejaVuSans-116"/>
      <use x="100.390625" xlink:href="#DejaVuSans-104"/>
      <use x="163.769531" xlink:href="#DejaVuSans-101"/>
      <use x="225.292969" xlink:href="#DejaVuSans-114"/>
      <use x="266.40625" xlink:href="#DejaVuSans-95"/>
      <use x="316.40625" xlink:href="#DejaVuSans-84"/>
      <use x="369.740234" xlink:href="#DejaVuSans-65"/>
      <use x="438.148438" xlink:href="#DejaVuSans-70"/>
     </g>
    </g>
   </g>
  </g>
 </g>
 <defs>
  <clipPath id="pc4912d7871">
   <rect height="554.4" width="558" x="90" y="86.4"/>
  </clipPath>
 </defs>
</svg>
