<?xml version="1.0" encoding="utf-8"?>
<!-- Generator: Adobe Illustrator 15.1.0, SVG Export Plug-In . SVG Version: 6.00 Build 0)  -->
<!DOCTYPE svg PUBLIC "-//W3C//DTD SVG 1.1//EN" "http://www.w3.org/Graphics/SVG/1.1/DTD/svg11.dtd">
<svg version="1.1" id="Layer_1" xmlns="http://www.w3.org/2000/svg" xmlns:xlink="http://www.w3.org/1999/xlink" x="0px" y="0px"
	 width="500px" height="900px" viewBox="0 0 500 900" enable-background="new 0 0 500 900" xml:space="preserve">
<g id="titleContainer" transform="translate(60, 5)">
	<text transform="matrix(1 0 0 1 124.6448 103.3545)" font-family="'CourierNewPSMT'" font-size="19.3548">V</text>
	<text transform="matrix(1 0 0 1 143.1609 103.3545)" font-family="'CourierNewPSMT'" font-size="19.3548">A</text>
	<text transform="matrix(1 0 0 1 161.6765 103.3545)" font-family="'CourierNewPSMT'" font-size="19.3548">k</text>
	<text transform="matrix(1 0 0 1 180.1931 103.3545)" font-family="'CourierNewPSMT'" font-size="19.3548">N</text>
	<text transform="matrix(1 0 0 1 198.7087 103.3545)" font-family="'CourierNewPSMT'" font-size="19.3548">S</text>
	<text transform="matrix(1 0 0 1 217.2253 103.3545)" font-family="'CourierNewPSMT'" font-size="19.3548">G</text>
	<text transform="matrix(1 0 0 1 235.741 103.3545)" font-family="'CourierNewPSMT'" font-size="19.3548">A</text>
	<text transform="matrix(1 0 0 1 254.2576 103.3545)" font-family="'CourierNewPSMT'" font-size="19.3548">E</text>
	<text transform="matrix(1 0 0 1 272.7732 103.3545)" font-family="'CourierNewPSMT'" font-size="19.3548">R</text>
	<path fill="none" stroke="#BE202D" stroke-width="2" d="M139.71,103.355v7.419l4.517,4.839"/>
	<path fill="none" stroke="#0D75BC" stroke-width="2" d="M139.71,103.355v-7.419l-4.517-4.839"/>
	<path fill="none" stroke="#BE202D" stroke-width="2" d="M158.226,103.355v7.419l4.516,4.839"/>
	<path fill="none" stroke="#0D75BC" stroke-width="2" d="M158.226,103.355v-7.419l-4.517-4.839"/>
	<path fill="none" stroke="#BE202D" stroke-width="2" d="M176.742,103.355v7.419l4.517,4.839"/>
	<path fill="none" stroke="#0D75BC" stroke-width="2" d="M176.742,103.355v-7.419l-4.516-4.839"/>
	<path fill="none" stroke="#BE202D" stroke-width="2" d="M195.259,103.355v7.419l4.516,4.839"/>
	<path fill="none" stroke="#0D75BC" stroke-width="2" d="M195.259,103.355v-7.419l-4.517-4.839"/>
	<path fill="none" stroke="#BE202D" stroke-width="2" d="M213.774,103.355v7.419l4.517,4.839"/>
	<path fill="none" stroke="#0D75BC" stroke-width="2" d="M213.774,103.355v-7.419l-4.516-4.839"/>
	<path fill="none" stroke="#BE202D" stroke-width="2" d="M232.291,103.355v7.419l4.516,4.839"/>
	<path fill="none" stroke="#0D75BC" stroke-width="2" d="M232.291,103.355v-7.419l-4.517-4.839"/>
	<path fill="none" stroke="#BE202D" stroke-width="2" d="M250.806,103.355v7.419l4.517,4.839"/>
	<path fill="none" stroke="#0D75BC" stroke-width="2" d="M250.806,103.355v-7.419l-4.516-4.839"/>
	<path fill="none" stroke="#BE202D" stroke-width="2" d="M269.323,103.355v7.419l4.516,4.839"/>
	<path fill="none" stroke="#0D75BC" stroke-width="2" d="M269.323,103.355v-7.419l-4.517-4.839"/>
</g>
<g id="peptideContainer" transform="translate(410, 75)">
	<text transform="matrix(1 0 0 1 -371.2903 62.3867)" font-family="'ArialMT'" font-size="11.6129">Precursor m/z:</text>
	<text transform="matrix(1 0 0 1 -177.7415 62.3867)" font-family="'ArialMT'" font-size="11.6129">Charge:</text>
	<text transform="matrix(1 0 0 1 -71.2903 62.3867)" font-family="'ArialMT'" font-size="11.6129">Fragmented Bonds:</text>
	<text transform="matrix(1 0 0 1 -280.967 62.3867)" font-family="'ArialMT'" font-size="10.9677">546.7753</text>
	<text transform="matrix(1 0 0 1 -129.3547 62.3867)" font-family="'ArialMT'" font-size="10.9677">+2</text>
	<text transform="matrix(1 0 0 1 48.0652 62.3867)" font-family="'ArialMT'" font-size="10.9677">8/8</text>
</g>
<g transform="translate(60, 90)">
	<rect id="yZoom" x="-60" y="57.064" pointer-events="all" fill="none" width="38.71" height="245.161"/>
	<rect id="xZoom" x="-21.29" y="302.226" pointer-events="all" fill="none" width="451.613" height="40"/>
	<g>
		<defs>
			<rect id="SVGID_1_" x="-21.29" y="57.064" width="451.613" height="245.161"/>
		</defs>
		<clipPath id="SVGID_2_">
			<use xlink:href="#SVGID_1_"  overflow="visible"/>
		</clipPath>
		<g id="annotationContainer" clip-path="url(#SVGID_2_)">
			<rect x="-10.764" y="297.225" fill="#A6A6A6" width="0.452" height="5.001"/>
			<rect x="-8.853" y="300.757" fill="#A6A6A6" width="0.451" height="1.469"/>
			<rect x="-3.776" y="300.798" fill="#A6A6A6" width="0.452" height="1.428"/>
			<rect x="2.049" y="295.042" fill="#BE202D" width="1.354" height="7.183"/>
			<rect x="4.152" y="295.696" fill="#A6A6A6" width="0.452" height="6.529"/>
			<rect x="9.796" y="300.291" fill="#A6A6A6" width="0.451" height="1.935"/>
			<rect x="10.902" y="281.502" fill="#A6A6A6" width="0.452" height="20.724"/>
			<rect x="12.36" y="300.572" fill="#A6A6A6" width="0.451" height="1.654"/>
			<rect x="21.56" y="300.472" fill="#A6A6A6" width="0.452" height="1.754"/>
			<rect x="24.529" y="297.565" fill="#A6A6A6" width="0.451" height="4.66"/>
			<rect x="25.153" y="238.93" fill="#0D75BC" width="1.354" height="63.296"/>
			<rect x="26.132" y="298.28" fill="#A6A6A6" width="0.452" height="3.946"/>
			<rect x="37.703" y="296.387" fill="#A6A6A6" width="0.451" height="5.838"/>
			<rect x="50.796" y="294.633" fill="#A6A6A6" width="0.452" height="7.593"/>
			<rect x="55.946" y="300.399" fill="#A6A6A6" width="0.451" height="1.826"/>
			<rect x="60.289" y="300.127" fill="#A6A6A6" width="0.452" height="2.099"/>
			<rect x="62.46" y="290.157" fill="#0D75BC" width="1.355" height="12.068"/>
			<rect x="69.819" y="281.507" fill="#BE202D" width="1.354" height="20.719"/>
			<rect x="71.854" y="293.699" fill="#A6A6A6" width="0.451" height="8.526"/>
			<rect x="89.732" y="299.167" fill="#A6A6A6" width="0.451" height="3.059"/>
			<rect x="97.596" y="294.591" fill="#A6A6A6" width="0.451" height="7.634"/>
			<rect x="107.126" y="293.853" fill="#BE202D" width="1.355" height="8.373"/>
			<rect x="119.124" y="296.982" fill="#A6A6A6" width="0.451" height="5.243"/>
			<rect x="121.76" y="293.65" fill="#A6A6A6" width="0.452" height="8.575"/>
			<rect x="122.024" y="299.871" fill="#A6A6A6" width="0.451" height="2.354"/>
			<rect x="122.798" y="298.802" fill="#A6A6A6" width="0.451" height="3.424"/>
			<rect x="126.99" y="299.794" fill="#A6A6A6" width="0.452" height="2.431"/>
			<rect x="136.739" y="292.668" fill="#A6A6A6" width="0.452" height="9.558"/>
			<rect x="137.073" y="275.276" fill="#BE202D" width="1.354" height="26.95"/>
			<rect x="137.544" y="290.826" fill="#A6A6A6" width="0.451" height="11.4"/>
			<rect x="138.051" y="297.209" fill="#A6A6A6" width="0.452" height="5.017"/>
			<rect x="140.414" y="274.888" fill="#A6A6A6" width="0.452" height="27.338"/>
			<rect x="140.677" y="293.58" fill="#A6A6A6" width="0.451" height="8.646"/>
			<rect x="151.951" y="293.531" fill="#A6A6A6" width="0.452" height="8.694"/>
			<rect x="152.229" y="298.682" fill="#A6A6A6" width="0.452" height="3.544"/>
			<rect x="151.797" y="258.344" fill="#0D75BC" width="1.354" height="43.881"/>
			<rect x="152.774" y="291.444" fill="#A6A6A6" width="0.452" height="10.781"/>
			<rect x="154.863" y="299.732" fill="#A6A6A6" width="0.452" height="2.493"/>
			<rect x="156.714" y="299.93" fill="#A6A6A6" width="0.452" height="2.295"/>
			<rect x="156.958" y="299.423" fill="#A6A6A6" width="0.452" height="2.802"/>
			<rect x="157.991" y="299.66" fill="#A6A6A6" width="0.451" height="2.565"/>
			<rect x="158.538" y="292.989" fill="#A6A6A6" width="0.452" height="9.236"/>
			<rect x="158.67" y="293.163" fill="#A6A6A6" width="0.452" height="9.063"/>
			<rect x="161.699" y="295.319" fill="#A6A6A6" width="0.451" height="6.906"/>
			<rect x="161.959" y="297.606" fill="#A6A6A6" width="0.451" height="4.62"/>
			<rect x="162.217" y="298.22" fill="#A6A6A6" width="0.452" height="4.005"/>
			<rect x="166.153" y="299.651" fill="#A6A6A6" width="0.451" height="2.575"/>
			<rect x="166.428" y="174.86" fill="#A6A6A6" width="0.451" height="127.366"/>
			<rect x="166.691" y="256.108" fill="#A6A6A6" width="0.452" height="46.117"/>
			<rect x="166.946" y="297.392" fill="#A6A6A6" width="0.451" height="4.833"/>
			<rect x="168.521" y="298.252" fill="#A6A6A6" width="0.452" height="3.974"/>
			<rect x="168.782" y="299.532" fill="#A6A6A6" width="0.451" height="2.693"/>
			<rect x="168.804" y="300.238" fill="#A6A6A6" width="0.451" height="1.987"/>
			<rect x="169.041" y="298.958" fill="#A6A6A6" width="0.452" height="3.268"/>
			<rect x="172.972" y="298.616" fill="#A6A6A6" width="0.451" height="3.61"/>
			<rect x="173.251" y="287.55" fill="#A6A6A6" width="0.451" height="14.676"/>
			<rect x="173.512" y="299.323" fill="#A6A6A6" width="0.451" height="2.903"/>
			<rect x="173.767" y="292.216" fill="#A6A6A6" width="0.451" height="10.009"/>
			<rect x="176.669" y="280.184" fill="#A6A6A6" width="0.451" height="22.042"/>
			<rect x="178.498" y="298.146" fill="#A6A6A6" width="0.451" height="4.079"/>
			<rect x="179.032" y="299.25" fill="#A6A6A6" width="0.451" height="2.975"/>
			<rect x="180.624" y="297.828" fill="#A6A6A6" width="0.451" height="4.397"/>
			<rect x="182.78" y="268.892" fill="#BE202D" width="1.355" height="33.333"/>
			<rect x="183.254" y="298.937" fill="#A6A6A6" width="0.451" height="3.289"/>
			<rect x="183.759" y="296.705" fill="#A6A6A6" width="0.451" height="5.521"/>
			<rect x="187.449" y="296.438" fill="#A6A6A6" width="0.451" height="5.788"/>
			<rect x="187.713" y="296.616" fill="#A6A6A6" width="0.451" height="5.609"/>
			<rect x="187.955" y="290.083" fill="#A6A6A6" width="0.452" height="12.143"/>
			<rect x="187.973" y="293.131" fill="#A6A6A6" width="0.452" height="9.094"/>
			<rect x="188.481" y="292.986" fill="#A6A6A6" width="0.451" height="9.24"/>
			<rect x="190.078" y="299.176" fill="#A6A6A6" width="0.451" height="3.05"/>
			<rect x="192.17" y="298.938" fill="#A6A6A6" width="0.452" height="3.287"/>
			<rect x="192.696" y="299.111" fill="#A6A6A6" width="0.452" height="3.114"/>
			<rect x="192.506" y="240.792" fill="#666666" width="1.354" height="61.434"/>
			<rect x="193.218" y="240.755" fill="#A6A6A6" width="0.452" height="61.47"/>
			<rect x="193.475" y="239.985" fill="#A6A6A6" width="0.451" height="62.24"/>
			<rect x="211.689" y="292.152" fill="#0D75BC" width="1.355" height="10.074"/>
			<rect x="212.667" y="298.653" fill="#A6A6A6" width="0.451" height="3.572"/>
			<rect x="217.424" y="297.677" fill="#A6A6A6" width="0.451" height="4.548"/>
			<rect x="236.565" y="297.104" fill="#A6A6A6" width="0.452" height="5.121"/>
			<rect x="242.674" y="225.898" fill="#BE202D" width="1.354" height="76.328"/>
			<rect x="243.651" y="283.884" fill="#A6A6A6" width="0.452" height="18.341"/>
			<rect x="247.367" y="298.477" fill="#A6A6A6" width="0.451" height="3.749"/>
			<rect x="257.397" y="281.007" fill="#0D75BC" width="1.354" height="21.219"/>
			<rect x="258.376" y="297.7" fill="#A6A6A6" width="0.452" height="4.525"/>
			<rect x="277.883" y="293.308" fill="#0D75BC" width="1.354" height="8.917"/>
			<rect x="278.856" y="299.427" fill="#A6A6A6" width="0.452" height="2.799"/>
			<rect x="287.343" y="297.635" fill="#0D75BC" width="1.354" height="4.59"/>
			<rect x="302.538" y="299.79" fill="#A6A6A6" width="0.452" height="2.436"/>
			<rect x="310.392" y="299.995" fill="#A6A6A6" width="0.452" height="2.231"/>
			<rect x="317.768" y="300.178" fill="#A6A6A6" width="0.451" height="2.048"/>
			<rect x="324.651" y="286.743" fill="#0D75BC" width="1.355" height="15.483"/>
			<rect x="325.629" y="295.911" fill="#A6A6A6" width="0.452" height="6.314"/>
			<rect x="332.009" y="274.925" fill="#BE202D" width="1.355" height="27.301"/>
			<rect x="332.987" y="294.487" fill="#A6A6A6" width="0.452" height="7.739"/>
			<rect x="336.151" y="295.717" fill="#A6A6A6" width="0.452" height="6.509"/>
			<rect x="345.609" y="298.822" fill="#A6A6A6" width="0.451" height="3.403"/>
			<rect x="354.936" y="299.807" fill="#A6A6A6" width="0.452" height="2.419"/>
			<rect x="359.857" y="296.116" fill="#BE202D" width="1.355" height="6.11"/>
			<rect x="360.827" y="293.407" fill="#A6A6A6" width="0.451" height="8.818"/>
			<rect x="361.351" y="298.019" fill="#A6A6A6" width="0.451" height="4.207"/>
			<rect x="362.419" y="290.814" fill="#A6A6A6" width="0.451" height="11.411"/>
			<rect x="369.316" y="68.739" fill="#BE202D" width="1.354" height="233.487"/>
			<rect x="370.295" y="233.134" fill="#A6A6A6" width="0.451" height="69.092"/>
			<rect x="392.421" y="291.414" fill="#0D75BC" width="1.355" height="10.812"/>
			<rect x="393.393" y="298.805" fill="#A6A6A6" width="0.451" height="3.42"/>
			<rect x="419.344" y="299.964" fill="#A6A6A6" width="0.451" height="2.261"/>
			<text transform="matrix(1 0 0 1 -4.4031 293.875)" enable-background="new    "><tspan x="0" y="0" font-family="'ArialMT'" font-size="10.3226">y</tspan><tspan x="5.161" y="0" font-family="'MyriadPro-Regular'" font-size="10.3226">₁</tspan></text>
			<text transform="matrix(1 0 0 1 18.4119 237.7617)" enable-background="new    "><tspan x="0" y="0" font-family="'ArialMT'" font-size="10.3226">b</tspan><tspan x="5.741" y="0" font-family="'MyriadPro-Regular'" font-size="10.3226">₁</tspan></text>
			<text transform="matrix(1 0 0 1 55.719 288.9897)" enable-background="new    "><tspan x="0" y="0" font-family="'ArialMT'" font-size="10.3226">b</tspan><tspan x="5.741" y="0" font-family="'MyriadPro-Regular'" font-size="10.3226">₂</tspan></text>
			<text transform="matrix(1 0 0 1 63.3679 280.3389)" enable-background="new    "><tspan x="0" y="0" font-family="'ArialMT'" font-size="10.3226">y</tspan><tspan x="5.161" y="0" font-family="'MyriadPro-Regular'" font-size="10.3226">₂</tspan></text>
			<text transform="matrix(1 0 0 1 100.6746 292.6855)" enable-background="new    "><tspan x="0" y="0" font-family="'ArialMT'" font-size="10.3226">y</tspan><tspan x="5.161" y="0" font-family="'MyriadPro-Regular'" font-size="10.3226">₃</tspan></text>
			<text transform="matrix(1 0 0 1 130.6213 274.1084)" enable-background="new    "><tspan x="0" y="0" font-family="'ArialMT'" font-size="10.3226">y</tspan><tspan x="5.161" y="0" font-family="'MyriadPro-Regular'" font-size="10.3226">₄</tspan></text>
			<text transform="matrix(1 0 0 1 145.0549 257.1768)" enable-background="new    "><tspan x="0" y="0" font-family="'ArialMT'" font-size="10.3226">b</tspan><tspan x="5.741" y="0" font-family="'MyriadPro-Regular'" font-size="10.3226">₃</tspan></text>
			<text transform="matrix(1 0 0 1 176.3289 267.7246)" enable-background="new    "><tspan x="0" y="0" font-family="'ArialMT'" font-size="10.3226">y</tspan><tspan x="5.161" y="0" font-family="'MyriadPro-Regular'" font-size="10.3226">₅</tspan></text>
			<text transform="matrix(1 0 0 1 156.8054 239.624)" enable-background="new    "><tspan x="0" y="0" font-family="'ArialMT'" font-size="10.3226">[M+2H-H</tspan><tspan x="41.582" y="0" font-family="'MyriadPro-Regular'" font-size="10.3226">₂</tspan><tspan x="44.793" y="0" font-family="'ArialMT'" font-size="10.3226">O]</tspan><tspan x="55.689" y="0" font-family="'MyriadPro-Regular'" font-size="10.3226">⁺</tspan><tspan x="60.851" y="0" font-family="'ArialMT'" font-size="10.3226">²</tspan></text>
			<text transform="matrix(1 0 0 1 204.948 290.9844)" enable-background="new    "><tspan x="0" y="0" font-family="'ArialMT'" font-size="10.3226">b</tspan><tspan x="5.74" y="0" font-family="'MyriadPro-Regular'" font-size="10.3226">₄</tspan></text>
			<text transform="matrix(1 0 0 1 236.2214 224.7305)" enable-background="new    "><tspan x="0" y="0" font-family="'ArialMT'" font-size="10.3226">y</tspan><tspan x="5.161" y="0" font-family="'MyriadPro-Regular'" font-size="10.3226">₆</tspan></text>
			<text transform="matrix(1 0 0 1 250.656 279.8389)" enable-background="new    "><tspan x="0" y="0" font-family="'ArialMT'" font-size="10.3226">b</tspan><tspan x="5.741" y="0" font-family="'MyriadPro-Regular'" font-size="10.3226">₅</tspan></text>
			<text transform="matrix(1 0 0 1 254.9412 292.1406)" enable-background="new    "><tspan x="0" y="0" font-family="'ArialMT'" font-size="10.3226">[b</tspan><tspan x="8.608" y="0" font-family="'MyriadPro-Regular'" font-size="10.3226">₆</tspan><tspan x="12.036" y="0" font-family="'ArialMT'" font-size="10.3226">-H</tspan><tspan x="22.928" y="0" font-family="'MyriadPro-Regular'" font-size="10.3226">₂</tspan><tspan x="26.138" y="0" font-family="'ArialMT'" font-size="10.3226">O]</tspan></text>
			<text transform="matrix(1 0 0 1 280.6013 296.4678)" enable-background="new    "><tspan x="0" y="0" font-family="'ArialMT'" font-size="10.3226">b</tspan><tspan x="5.741" y="0" font-family="'MyriadPro-Regular'" font-size="10.3226">₆</tspan></text>
			<text transform="matrix(1 0 0 1 317.9099 285.5752)" enable-background="new    "><tspan x="0" y="0" font-family="'ArialMT'" font-size="10.3226">b</tspan><tspan x="5.741" y="0" font-family="'MyriadPro-Regular'" font-size="10.3226">₇</tspan></text>
			<text transform="matrix(1 0 0 1 325.5574 273.7568)" enable-background="new    "><tspan x="0" y="0" font-family="'ArialMT'" font-size="10.3226">y</tspan><tspan x="5.161" y="0" font-family="'MyriadPro-Regular'" font-size="10.3226">₇</tspan></text>
			<text transform="matrix(1 0 0 1 337.2068 294.9482)" enable-background="new    "><tspan x="0" y="0" font-family="'ArialMT'" font-size="10.3226">[y</tspan><tspan x="8.029" y="0" font-family="'MyriadPro-Regular'" font-size="10.3226">₈</tspan><tspan x="11.415" y="0" font-family="'ArialMT'" font-size="10.3226">-H</tspan><tspan x="22.307" y="0" font-family="'MyriadPro-Regular'" font-size="10.3226">₂</tspan><tspan x="25.518" y="0" font-family="'ArialMT'" font-size="10.3226">O]</tspan></text>
			<text transform="matrix(1 0 0 1 362.864 67.5713)" enable-background="new    "><tspan x="0" y="0" font-family="'ArialMT'" font-size="10.3226">y</tspan><tspan x="5.161" y="0" font-family="'MyriadPro-Regular'" font-size="10.3226">₈</tspan></text>
			<text transform="matrix(1 0 0 1 385.6794 290.2466)" enable-background="new    "><tspan x="0" y="0" font-family="'ArialMT'" font-size="10.3226">b</tspan><tspan x="5.741" y="0" font-family="'MyriadPro-Regular'" font-size="10.3226">₈</tspan></text>
			<path d="M-21.29,302.226"/>
			<path d="M-21.29,302.226"/>
			<path d="M-21.29,302.226"/>
			<path d="M-21.29,302.226"/>
			<path d="M-21.29,302.226"/>
			<path d="M-21.29,302.226"/>
			<path d="M-21.29,302.226"/>
			<path d="M-21.29,302.226"/>
			<path d="M-21.29,302.226"/>
			<path d="M-21.29,302.226"/>
			<path d="M-21.29,302.226"/>
			<path d="M-21.29,302.226"/>
			<path d="M-21.29,302.226"/>
			<path d="M-21.29,302.226"/>
			<path d="M-21.29,302.226"/>
			<path d="M-21.29,302.226"/>
			<path d="M-21.29,302.226"/>
			<path d="M-21.29,302.226"/>
			<path d="M-21.29,302.226"/>
			<path d="M-21.29,302.226"/>
			<path d="M-21.29,302.226"/>
			<path d="M-21.29,302.226"/>
			<path d="M-21.29,302.226"/>
			<path d="M-21.29,302.226"/>
			<path d="M-21.29,302.226"/>
			<path d="M-21.29,302.226"/>
			<path d="M-21.29,302.226"/>
			<path d="M-21.29,302.226"/>
			<path d="M-21.29,302.226"/>
			<path d="M-21.29,302.226"/>
			<path d="M-21.29,302.226"/>
			<path d="M-21.29,302.226"/>
			<path d="M-21.29,302.226"/>
			<path d="M-21.29,302.226"/>
			<path d="M-21.29,302.226"/>
			<path d="M-21.29,302.226"/>
			<path d="M-21.29,302.226"/>
			<path d="M-21.29,302.226"/>
			<path d="M-21.29,302.226"/>
			<path d="M-21.29,302.226"/>
			<path d="M-21.29,302.226"/>
			<path d="M-21.29,302.226"/>
			<path d="M-21.29,302.226"/>
			<path d="M-21.29,302.226"/>
			<path d="M-21.29,302.226"/>
			<path d="M-21.29,302.226"/>
			<path d="M-21.29,302.226"/>
			<path d="M-21.29,302.226"/>
			<path d="M-21.29,302.226"/>
			<path d="M-21.29,302.226"/>
			<path d="M-21.29,302.226"/>
			<path d="M-21.29,302.226"/>
			<path d="M-21.29,302.226"/>
			<path d="M-21.29,302.226"/>
			<path d="M-21.29,302.226"/>
			<path d="M-21.29,302.226"/>
			<path d="M-21.29,302.226"/>
			<path d="M-21.29,302.226"/>
			<path d="M-21.29,302.226"/>
			<path d="M-21.29,302.226"/>
			<path d="M-21.29,302.226"/>
			<path d="M-21.29,302.226"/>
			<path d="M-21.29,302.226"/>
			<path d="M-21.29,302.226"/>
			<path d="M-21.29,302.226"/>
			<path d="M-21.29,302.226"/>
			<path d="M-21.29,302.226"/>
			<path d="M-21.29,302.226"/>
			<path d="M-21.29,302.226"/>
			<path d="M-21.29,302.226"/>
			<path d="M-21.29,302.226"/>
			<path d="M-21.29,302.226"/>
			<path d="M-21.29,302.226"/>
			<path d="M-21.29,302.226"/>
			<path d="M-21.29,302.226"/>
			<path d="M-21.29,302.226"/>
			<path d="M-21.29,302.226"/>
			<path d="M-21.29,302.226"/>
			<path d="M-21.29,302.226"/>
			<path d="M-21.29,302.226"/>
			<path d="M-21.29,302.226"/>
			<path d="M-21.29,302.226"/>
			<path d="M-21.29,302.226"/>
			<path d="M-21.29,302.226"/>
			<path d="M-21.29,302.226"/>
			<path d="M-21.29,302.226"/>
			<path d="M-21.29,302.226"/>
			<path d="M-21.29,302.226"/>
			<path d="M-21.29,302.226"/>
			<path d="M-21.29,302.226"/>
			<path d="M-21.29,302.226"/>
			<path d="M-21.29,302.226"/>
			<path d="M-21.29,302.226"/>
			<path d="M-21.29,302.226"/>
			<path d="M-21.29,302.226"/>
			<path d="M-21.29,302.226"/>
			<path d="M-21.29,302.226"/>
			<path d="M-21.29,302.226"/>
			<path d="M-21.29,302.226"/>
			<path d="M-21.29,302.226"/>
			<path d="M-21.29,302.226"/>
			<path d="M-21.29,302.226"/>
			<path d="M-21.29,302.226"/>
			<path d="M-21.29,302.226"/>
			<path d="M-21.29,302.226"/>
			<path d="M-21.29,302.226"/>
			<path d="M-21.29,302.226"/>
		</g>
	</g>
	<g transform="translate(0, 380)">
		<text transform="matrix(1 0 0 1 183.0095 -53.9033)" font-family="'Arial-BoldItalicMT'" font-size="10.3226">m/z</text>
		<g transform="translate(57.478912697499766,0)">
			<line fill="none" stroke="#000000" x1="-41.686" y1="-77.774" x2="-41.686" y2="-73.903"/>
			<text transform="matrix(1 0 0 1 -48.1442 -66.4712)" font-family="'ArialMT'" font-size="7.7419">200</text>
		</g>
		<g transform="translate(138.88191208202065,0)">
			<line fill="none" stroke="#000000" x1="-70.571" y1="-77.774" x2="-70.571" y2="-73.903"/>
			<text transform="matrix(1 0 0 1 -77.0292 -66.4712)" font-family="'ArialMT'" font-size="7.7419">300</text>
		</g>
		<g transform="translate(220.28491146654153,0)">
			<line fill="none" stroke="#000000" x1="-99.456" y1="-77.774" x2="-99.456" y2="-73.903"/>
			<text transform="matrix(1 0 0 1 -105.9141 -66.4712)" font-family="'ArialMT'" font-size="7.7419">400</text>
		</g>
		<g transform="translate(301.6879108510624,0)">
			<line fill="none" stroke="#000000" x1="-128.34" y1="-77.774" x2="-128.34" y2="-73.903"/>
			<text transform="matrix(1 0 0 1 -134.799 -66.4712)" font-family="'ArialMT'" font-size="7.7419">500</text>
		</g>
		<g transform="translate(383.09091023558324,0)">
			<line fill="none" stroke="#000000" x1="-157.226" y1="-77.774" x2="-157.226" y2="-73.903"/>
			<text transform="matrix(1 0 0 1 -163.684 -66.4712)" font-family="'ArialMT'" font-size="7.7419">600</text>
		</g>
		<g transform="translate(464.4939096201042,0)">
			<line fill="none" stroke="#000000" x1="-186.11" y1="-77.774" x2="-186.11" y2="-73.903"/>
			<text transform="matrix(1 0 0 1 -192.5684 -66.4712)" font-family="'ArialMT'" font-size="7.7419">700</text>
		</g>
		<g transform="translate(545.8969090046251,0)">
			<line fill="none" stroke="#000000" x1="-214.996" y1="-77.774" x2="-214.996" y2="-73.903"/>
			<text transform="matrix(1 0 0 1 -221.4539 -66.4712)" font-family="'ArialMT'" font-size="7.7419">800</text>
		</g>
		<g transform="translate(627.2999083891459,0)">
			<line fill="none" stroke="#000000" x1="-243.88" y1="-77.774" x2="-243.88" y2="-73.903"/>
			<text transform="matrix(1 0 0 1 -250.3384 -66.4712)" font-family="'ArialMT'" font-size="7.7419">900</text>
		</g>
		<path fill="none" stroke="#000000" d="M-21.29-73.903v-3.871h451.613v3.871"/>
	</g>
	<g>
		<text transform="matrix(6.123234e-017 -1 1 6.123234e-017 -49.6776 246.6943)" font-family="'Arial-Black'" font-size="10.3226">Relative Abundance (%)</text>
		<g transform="translate(0,380)">
			<line fill="none" stroke="#000000" x1="-21.29" y1="-77.774" x2="-25.161" y2="-77.774"/>
			<text transform="matrix(1 0 0 1 -37.8588 -75.2969)" font-family="'ArialMT'" font-size="7.7419">0.0</text>
		</g>
		<g transform="translate(0,343.8095238095238)">
			<line fill="none" stroke="#000000" x1="-21.29" y1="-64.933" x2="-25.161" y2="-64.933"/>
			<text transform="matrix(1 0 0 1 -35.7084 -62.4551)" font-family="'ArialMT'" font-size="7.7419">10</text>
		</g>
		<g transform="translate(0,307.61904761904765)">
			<line fill="none" stroke="#000000" x1="-21.29" y1="-52.091" x2="-25.161" y2="-52.091"/>
			<text transform="matrix(1 0 0 1 -35.7084 -49.6132)" font-family="'ArialMT'" font-size="7.7419">20</text>
		</g>
		<g transform="translate(0,271.42857142857144)">
			<line fill="none" stroke="#000000" x1="-21.29" y1="-39.249" x2="-25.161" y2="-39.249"/>
			<text transform="matrix(1 0 0 1 -35.7084 -36.7714)" font-family="'ArialMT'" font-size="7.7419">30</text>
		</g>
		<g transform="translate(0,235.23809523809524)">
			<line fill="none" stroke="#000000" x1="-21.29" y1="-26.407" x2="-25.161" y2="-26.407"/>
			<text transform="matrix(1 0 0 1 -35.7084 -23.9294)" font-family="'ArialMT'" font-size="7.7419">40</text>
		</g>
		<g transform="translate(0,199.04761904761907)">
			<line fill="none" stroke="#000000" x1="-21.29" y1="-13.565" x2="-25.161" y2="-13.565"/>
			<text transform="matrix(1 0 0 1 -35.7084 -11.0876)" font-family="'ArialMT'" font-size="7.7419">50</text>
		</g>
		<g transform="translate(0,162.85714285714286)">
			<line fill="none" stroke="#000000" x1="-21.29" y1="-0.723" x2="-25.161" y2="-0.723"/>
			<text transform="matrix(1 0 0 1 -35.7084 1.7542)" font-family="'ArialMT'" font-size="7.7419">60</text>
		</g>
		<g transform="translate(0,126.66666666666669)">
			<line fill="none" stroke="#000000" x1="-21.29" y1="12.119" x2="-25.161" y2="12.119"/>
			<text transform="matrix(1 0 0 1 -35.7084 14.5961)" font-family="'ArialMT'" font-size="7.7419">70</text>
		</g>
		<g transform="translate(0,90.4761904761905)">
			<line fill="none" stroke="#000000" x1="-21.29" y1="24.96" x2="-25.161" y2="24.96"/>
			<text transform="matrix(1 0 0 1 -35.7084 27.4369)" font-family="'ArialMT'" font-size="7.7419">80</text>
		</g>
		<g transform="translate(0,54.285714285714306)">
			<line fill="none" stroke="#000000" x1="-21.29" y1="37.802" x2="-25.161" y2="37.802"/>
			<text transform="matrix(1 0 0 1 -35.7084 40.2787)" font-family="'ArialMT'" font-size="7.7419">90</text>
		</g>
		<g transform="translate(0,18.095238095238116)">
			<line fill="none" stroke="#000000" x1="-21.29" y1="50.644" x2="-25.161" y2="50.644"/>
			<text transform="matrix(1 0 0 1 -40.0135 53.1206)" font-family="'ArialMT'" font-size="7.7419">100</text>
		</g>
		<path fill="none" stroke="#000000" d="M-25.161,57.064h3.871v245.161h-3.871"/>
	</g>
</g>
<g id="fragmentContainer" transform="translate(60,532)">
	<g>
		<defs>
			<rect id="SVGID_3_" x="-21.29" y="-99.774" width="451.613" height="64.517"/>
		</defs>
		<clipPath id="SVGID_4_">
			<use xlink:href="#SVGID_3_"  overflow="visible"/>
		</clipPath>
		<g id="massErrorContainer" clip-path="url(#SVGID_4_)">
			<circle fill="none" cx="-10.537" cy="-67.516" r="2.581"/>
			<path fill="#A9A9A9" stroke="#A9A9A9" stroke-dasharray="10,5" d="M-21.29-67.516h451.613"/>
			<circle fill="none" cx="-8.627" cy="-67.516" r="2.581"/>
			<circle fill="none" cx="-3.549" cy="-67.516" r="2.581"/>
			<circle fill="#BE202D" cx="2.725" cy="-64.298" r="2.581"/>
			<circle fill="none" cx="4.379" cy="-67.516" r="2.581"/>
			<circle fill="none" cx="10.021" cy="-67.516" r="2.581"/>
			<circle fill="none" cx="11.128" cy="-67.516" r="2.581"/>
			<circle fill="none" cx="12.586" cy="-67.516" r="2.581"/>
			<circle fill="none" cx="21.787" cy="-67.516" r="2.581"/>
			<circle fill="none" cx="24.755" cy="-67.516" r="2.581"/>
			<circle fill="#0D75BC" cx="25.83" cy="-62.25" r="2.58"/>
			<circle fill="none" cx="26.357" cy="-67.516" r="2.581"/>
			<circle fill="none" cx="37.928" cy="-67.516" r="2.581"/>
			<circle fill="none" cx="51.021" cy="-67.516" r="2.581"/>
			<circle fill="none" cx="56.172" cy="-67.516" r="2.581"/>
			<circle fill="none" cx="60.514" cy="-67.516" r="2.581"/>
			<circle fill="#0D75BC" cx="63.137" cy="-61.498" r="2.581"/>
			<circle fill="#BE202D" cx="70.497" cy="-66.223" r="2.58"/>
			<circle fill="none" cx="72.08" cy="-67.516" r="2.581"/>
			<circle fill="none" cx="89.958" cy="-67.516" r="2.581"/>
			<circle fill="none" cx="97.822" cy="-67.516" r="2.581"/>
			<circle fill="#BE202D" cx="107.803" cy="-60.95" r="2.581"/>
			<circle fill="none" cx="119.349" cy="-67.516" r="2.581"/>
			<circle fill="none" cx="121.986" cy="-67.516" r="2.581"/>
			<circle fill="none" cx="122.25" cy="-67.516" r="2.581"/>
			<circle fill="none" cx="123.023" cy="-67.516" r="2.581"/>
			<circle fill="none" cx="127.216" cy="-67.516" r="2.581"/>
			<circle fill="none" cx="136.965" cy="-67.516" r="2.581"/>
			<circle fill="#BE202D" cx="137.75" cy="-63.403" r="2.581"/>
			<circle fill="none" cx="137.769" cy="-67.516" r="2.581"/>
			<circle fill="none" cx="138.277" cy="-67.516" r="2.581"/>
			<circle fill="none" cx="140.639" cy="-67.516" r="2.581"/>
			<circle fill="none" cx="140.903" cy="-67.516" r="2.581"/>
			<circle fill="none" cx="152.176" cy="-67.516" r="2.581"/>
			<circle fill="none" cx="152.456" cy="-67.516" r="2.581"/>
			<circle fill="#0D75BC" cx="152.473" cy="-62.781" r="2.581"/>
			<circle fill="none" cx="153.001" cy="-67.516" r="2.581"/>
			<circle fill="none" cx="155.089" cy="-67.516" r="2.581"/>
			<circle fill="none" cx="156.939" cy="-67.516" r="2.581"/>
			<circle fill="none" cx="157.183" cy="-67.516" r="2.581"/>
			<circle fill="none" cx="158.216" cy="-67.516" r="2.581"/>
			<circle fill="none" cx="158.764" cy="-67.516" r="2.581"/>
			<circle fill="none" cx="158.895" cy="-67.516" r="2.581"/>
			<circle fill="none" cx="161.924" cy="-67.516" r="2.581"/>
			<circle fill="none" cx="162.184" cy="-67.516" r="2.581"/>
			<circle fill="none" cx="162.442" cy="-67.516" r="2.581"/>
			<circle fill="none" cx="166.379" cy="-67.516" r="2.581"/>
			<circle fill="none" cx="166.654" cy="-67.516" r="2.581"/>
			<circle fill="none" cx="166.918" cy="-67.516" r="2.581"/>
			<circle fill="none" cx="167.172" cy="-67.516" r="2.581"/>
			<circle fill="none" cx="168.748" cy="-67.516" r="2.581"/>
			<circle fill="none" cx="169.007" cy="-67.516" r="2.581"/>
			<circle fill="none" cx="169.03" cy="-67.516" r="2.581"/>
			<circle fill="none" cx="169.267" cy="-67.516" r="2.581"/>
			<circle fill="none" cx="173.198" cy="-67.516" r="2.581"/>
			<circle fill="none" cx="173.476" cy="-67.516" r="2.581"/>
			<circle fill="none" cx="173.738" cy="-67.516" r="2.581"/>
			<circle fill="none" cx="173.993" cy="-67.516" r="2.581"/>
			<circle fill="none" cx="176.894" cy="-67.516" r="2.581"/>
			<circle fill="none" cx="178.723" cy="-67.516" r="2.581"/>
			<circle fill="none" cx="179.257" cy="-67.516" r="2.581"/>
			<circle fill="none" cx="180.849" cy="-67.516" r="2.581"/>
			<circle fill="#BE202D" cx="183.458" cy="-65.036" r="2.581"/>
			<circle fill="none" cx="183.479" cy="-67.516" r="2.581"/>
			<circle fill="none" cx="183.984" cy="-67.516" r="2.581"/>
			<circle fill="none" cx="187.674" cy="-67.516" r="2.581"/>
			<circle fill="none" cx="187.938" cy="-67.516" r="2.581"/>
			<circle fill="none" cx="188.18" cy="-67.516" r="2.581"/>
			<circle fill="none" cx="188.2" cy="-67.516" r="2.581"/>
			<circle fill="none" cx="188.707" cy="-67.516" r="2.581"/>
			<circle fill="none" cx="190.303" cy="-67.516" r="2.581"/>
			<circle fill="none" cx="192.395" cy="-67.516" r="2.581"/>
			<circle fill="none" cx="192.922" cy="-67.516" r="2.581"/>
			<circle fill="#666666" cx="193.182" cy="-62.083" r="2.581"/>
			<circle fill="none" cx="193.443" cy="-67.516" r="2.581"/>
			<circle fill="none" cx="193.701" cy="-67.516" r="2.581"/>
			<circle fill="#0D75BC" cx="212.367" cy="-64.543" r="2.581"/>
			<circle fill="none" cx="212.892" cy="-67.516" r="2.581"/>
			<circle fill="none" cx="217.649" cy="-67.516" r="2.581"/>
			<circle fill="none" cx="236.792" cy="-67.516" r="2.581"/>
			<circle fill="#BE202D" cx="243.35" cy="-61.421" r="2.581"/>
			<circle fill="none" cx="243.877" cy="-67.516" r="2.581"/>
			<circle fill="none" cx="247.592" cy="-67.516" r="2.581"/>
			<circle fill="#0D75BC" cx="258.074" cy="-63.374" r="2.581"/>
			<circle fill="none" cx="258.601" cy="-67.516" r="2.581"/>
			<circle fill="#0D75BC" cx="278.56" cy="-46.59" r="2.581"/>
			<circle fill="none" cx="279.082" cy="-67.516" r="2.581"/>
			<circle fill="#0D75BC" cx="288.02" cy="-57.057" r="2.58"/>
			<circle fill="none" cx="302.763" cy="-67.516" r="2.581"/>
			<circle fill="none" cx="310.619" cy="-67.516" r="2.581"/>
			<circle fill="none" cx="317.994" cy="-67.516" r="2.581"/>
			<circle fill="#0D75BC" cx="325.329" cy="-67.958" r="2.581"/>
			<circle fill="none" cx="325.855" cy="-67.516" r="2.581"/>
			<circle fill="#BE202D" cx="332.686" cy="-59.837" r="2.581"/>
			<circle fill="none" cx="333.213" cy="-67.516" r="2.581"/>
			<circle fill="none" cx="336.378" cy="-67.516" r="2.581"/>
			<circle fill="none" cx="345.835" cy="-67.516" r="2.581"/>
			<circle fill="none" cx="355.162" cy="-67.516" r="2.581"/>
			<circle fill="#BE202D" cx="360.535" cy="-60.106" r="2.581"/>
			<circle fill="none" cx="361.052" cy="-67.516" r="2.581"/>
			<circle fill="none" cx="361.577" cy="-67.516" r="2.581"/>
			<circle fill="none" cx="362.644" cy="-67.516" r="2.581"/>
			<circle fill="#BE202D" cx="369.993" cy="-58.807" r="2.581"/>
			<circle fill="none" cx="370.52" cy="-67.516" r="2.581"/>
			<circle fill="#0D75BC" cx="393.098" cy="-61.308" r="2.581"/>
			<circle fill="none" cx="393.619" cy="-67.516" r="2.581"/>
			<circle fill="none" cx="419.57" cy="-67.516" r="2.581"/>
		</g>
	</g>
	<g>
		<g transform="translate(57.478912697499766,0)">
			<line fill="none" stroke="#000000" x1="-41.686" y1="-99.774" x2="-41.686" y2="-103.645"/>
			<text transform="matrix(1 0 0 1 -48.1443 -105.5806)" font-family="'ArialMT'" font-size="7.7419">200</text>
		</g>
		<g transform="translate(138.88191208202065,0)">
			<line fill="none" stroke="#000000" x1="-70.571" y1="-99.774" x2="-70.571" y2="-103.645"/>
			<text transform="matrix(1 0 0 1 -77.0293 -105.5806)" font-family="'ArialMT'" font-size="7.7419">300</text>
		</g>
		<g transform="translate(220.28491146654153,0)">
			<line fill="none" stroke="#000000" x1="-99.456" y1="-99.774" x2="-99.456" y2="-103.645"/>
			<text transform="matrix(1 0 0 1 -105.9143 -105.5806)" font-family="'ArialMT'" font-size="7.7419">400</text>
		</g>
		<g transform="translate(301.6879108510624,0)">
			<line fill="none" stroke="#000000" x1="-128.341" y1="-99.774" x2="-128.341" y2="-103.645"/>
			<text transform="matrix(1 0 0 1 -134.7992 -105.5806)" font-family="'ArialMT'" font-size="7.7419">500</text>
		</g>
		<g transform="translate(383.09091023558324,0)">
			<line fill="none" stroke="#000000" x1="-157.226" y1="-99.774" x2="-157.226" y2="-103.645"/>
			<text transform="matrix(1 0 0 1 -163.6842 -105.5806)" font-family="'ArialMT'" font-size="7.7419">600</text>
		</g>
		<g transform="translate(464.4939096201042,0)">
			<line fill="none" stroke="#000000" x1="-186.111" y1="-99.774" x2="-186.111" y2="-103.645"/>
			<text transform="matrix(1 0 0 1 -192.5686 -105.5806)" font-family="'ArialMT'" font-size="7.7419">700</text>
		</g>
		<g transform="translate(545.8969090046251,0)">
			<line fill="none" stroke="#000000" x1="-214.996" y1="-99.774" x2="-214.996" y2="-103.645"/>
			<text transform="matrix(1 0 0 1 -221.4541 -105.5806)" font-family="'ArialMT'" font-size="7.7419">800</text>
		</g>
		<g transform="translate(627.2999083891459,0)">
			<line fill="none" stroke="#000000" x1="-243.881" y1="-99.774" x2="-243.881" y2="-103.645"/>
			<text transform="matrix(1 0 0 1 -250.3386 -105.5806)" font-family="'ArialMT'" font-size="7.7419">900</text>
		</g>
		<path fill="none" stroke="#000000" d="M-21.291-103.645v3.871h451.613v-3.871"/>
	</g>
	<g>
		<text transform="matrix(6.123234e-017 -1 1 6.123234e-017 -49.6779 -35.3896)" font-family="'Arial-Black'" font-size="10.3226">Error (ppm)</text>
		<g transform="translate(0,95.45454545454545)">
			<line fill="none" stroke="#000000" x1="-21.291" y1="-133.645" x2="-25.162" y2="-133.645"/>
			<text transform="matrix(1 0 0 1 -38.2867 -131.1685)" font-family="'ArialMT'" font-size="7.7419">-10</text>
		</g>
		<g transform="translate(0,72.72727272727273)">
			<line fill="none" stroke="#000000" x1="-21.291" y1="-125.581" x2="-25.162" y2="-125.581"/>
			<text transform="matrix(1 0 0 1 -33.9806 -123.1033)" font-family="'ArialMT'" font-size="7.7419">-5</text>
		</g>
		<g transform="translate(0,50)">
			<line fill="none" stroke="#000000" x1="-21.291" y1="-117.516" x2="-25.162" y2="-117.516"/>
			<text transform="matrix(1 0 0 1 -31.4025 -115.0391)" font-family="'ArialMT'" font-size="7.7419">0</text>
		</g>
		<g transform="translate(0,27.27272727272727)">
			<line fill="none" stroke="#000000" x1="-21.291" y1="-109.451" x2="-25.162" y2="-109.451"/>
			<text transform="matrix(1 0 0 1 -31.4025 -106.9749)" font-family="'ArialMT'" font-size="7.7419">5</text>
		</g>
		<g transform="translate(0,4.545454545454541)">
			<line fill="none" stroke="#000000" x1="-21.291" y1="-101.387" x2="-25.162" y2="-101.387"/>
			<text transform="matrix(1 0 0 1 -35.7086 -98.9097)" font-family="'ArialMT'" font-size="7.7419">10</text>
		</g>
		<path fill="none" stroke="#000000" d="M-25.162-99.774h3.871v64.517h-3.871"/>
	</g>
	<g transform="translate(0, 100)">
		<path fill="none" stroke="#000000" d="M-21.291-139.129v3.871h451.613v-3.871"/>
	</g>
	<g transform="translate(700,0)">
		<path fill="none" stroke="#000000" d="M-273.548-99.774h3.871v64.517h-3.871"/>
	</g>
</g>
<text transform="matrix(1 0 0 1 140.4999 108.3545)" font-family="'CourierNewPSMT'" font-size="19.35">PIC-</text>
<text transform="matrix(1 0 0 1 215.9677 81.3545)" font-family="'CourierNewPSMT'" font-size="19.35">Ac</text>
<line stroke="#000000" stroke-miterlimit="10" x1="226.889" y1="85.167" x2="226.889" y2="93.167"/>
<text transform="matrix(1 0 0 1 232.2582 152.0967)"><tspan x="0" y="0" font-family="'ArialMT'" font-size="11.61">Ions Score:50</tspan><tspan x="0" y="13.932" font-family="'ArialMT'" font-size="11.61">ptmRS:K3(Acetyl): 100</tspan></text>
</svg>
